<svg width="1440" height="900" viewBox="0 0 1440 900" fill="none" xmlns="http://www.w3.org/2000/svg">
<rect width="1440" height="900" fill="#F5F8FF"/>
<rect width="1440" height="70" fill="#3E3D57"/>
<path d="M1381.19 200.873H805.64C800.669 200.873 796.64 204.903 796.64 209.873V507.114C796.64 512.084 800.669 516.114 805.64 516.114H1381.19C1386.16 516.114 1390.19 512.084 1390.19 507.114V209.873C1390.19 204.903 1386.16 200.873 1381.19 200.873Z" fill="#F2F2F2"/>
<path opacity="0.3" d="M1045.8 254.914H854.038V487.163H1045.8V254.914Z" fill="#6C61EB"/>
<path d="M1272.79 271.641H1119.51V280.005H1272.79V271.641Z" fill="#3F3D56"/>
<path d="M1342.58 287.082H1119.51V295.445H1342.58V287.082Z" fill="#3F3D56"/>
<path d="M1272.79 324.396H1119.51V332.76H1272.79V324.396Z" fill="#3F3D56"/>
<path d="M1272.79 386.157H1119.51V394.521H1272.79V386.157Z" fill="#3F3D56"/>
<path d="M1342.58 339.836H1119.51V348.2H1342.58V339.836Z" fill="#3F3D56"/>
<path d="M1342.58 355.277H1119.51V363.64H1342.58V355.277Z" fill="#3F3D56"/>
<path d="M1342.58 370.717H1119.51V379.081H1342.58V370.717Z" fill="#3F3D56"/>
<path d="M1199.73 423.472H1119.51V445.345H1199.73V423.472Z" fill="#6C61EB"/>
<path d="M1058.19 242.369H866.431V474.618H1058.19V242.369Z" fill="#3F3D56"/>
<path d="M1030.8 370.786C1030.8 415.892 1003.61 431.641 970.078 431.641C936.542 431.641 909.357 415.892 909.357 370.786C909.357 325.681 970.078 268.299 970.078 268.299C970.078 268.299 1030.8 325.681 1030.8 370.786Z" fill="#6C61EB"/>
<path d="M967.866 424.742L968.488 386.992L994.369 340.291L968.585 381.07L968.865 364.096L986.702 330.308L968.939 359.604V359.605L969.441 329.077L988.542 302.177L969.52 324.276L969.835 268.299L967.86 342.403L968.023 339.346L948.603 310.027L967.711 345.214L965.902 379.309L965.848 378.404L943.461 347.55L965.78 381.601L965.554 385.865L965.514 385.929L965.532 386.279L960.941 472.779H967.074L967.811 428.1L990.075 394.133L967.866 424.742Z" fill="#3F3D56"/>
<path d="M805.771 648C852.962 648 891.217 643.103 891.217 637.063C891.217 631.023 852.962 626.126 805.771 626.126C758.581 626.126 720.326 631.023 720.326 637.063C720.326 643.103 758.581 648 805.771 648Z" fill="#3F3D56"/>
<path d="M765.412 334.288L762.574 340.937L765.767 383.98C765.767 383.98 763.993 386.43 765.767 388.179C767.541 389.929 767.186 390.629 767.186 390.629C767.186 390.629 764.348 390.629 765.767 392.728C767.186 394.828 767.186 395.878 767.186 395.878L766.476 397.978C766.476 397.978 767.896 399.727 767.896 401.127C767.896 402.527 777.12 445.57 777.12 445.57L785.99 428.423L781.023 360.184L765.412 334.288Z" fill="#6C61EB"/>
<path d="M858.74 441.957C858.74 441.957 874.35 453.297 874.9 462.366C875.449 471.435 854.778 448.861 854.637 446.317C854.497 443.774 858.74 441.957 858.74 441.957Z" fill="#FFB9B9"/>
<path d="M760.8 613.542L756.897 626.14C756.897 626.14 751.221 638.388 759.026 640.138C766.831 641.888 774.282 635.239 774.282 635.239V626.84L777.12 613.542H760.8Z" fill="#2F2E41"/>
<path d="M824.661 613.542C824.661 613.542 822.887 637.338 826.79 638.738C830.693 640.138 844.529 640.488 844.884 638.738C845.239 636.989 849.497 635.239 846.303 632.789C843.11 630.34 840.982 615.992 840.982 615.992L824.661 613.542Z" fill="#2F2E41"/>
<path d="M788.828 388.179V398.677C788.828 398.677 777.12 422.824 772.863 460.967C768.605 499.111 754.059 615.292 757.607 617.392C761.155 619.491 799.472 620.891 800.536 618.092C801.6 615.292 802.665 533.406 802.665 533.406L815.792 475.665C815.792 475.665 818.275 496.312 820.404 499.811C822.533 503.31 816.856 617.042 820.404 618.792C823.952 620.541 871.848 623.691 871.139 618.092C870.429 612.493 854.464 460.617 854.464 460.617C854.464 460.617 846.303 388.879 843.82 388.179C841.336 387.479 818.63 386.779 815.082 387.479C811.534 388.179 788.828 388.179 788.828 388.179Z" fill="#2F2E41"/>
<path d="M815.792 301.393C826.961 301.393 836.015 292.463 836.015 281.447C836.015 270.43 826.961 261.5 815.792 261.5C804.623 261.5 795.569 270.43 795.569 281.447C795.569 292.463 804.623 301.393 815.792 301.393Z" fill="#FFB9B9"/>
<path d="M820.049 298.244C820.049 298.244 809.76 313.991 812.244 318.191C814.727 322.39 785.99 313.991 785.99 313.991C785.99 313.991 803.374 292.995 803.019 290.545C802.665 288.096 820.049 298.244 820.049 298.244Z" fill="#FFB9B9"/>
<path d="M841.336 321.69C841.336 321.69 822.533 315.741 820.049 313.291C818.456 311.686 817.03 309.928 815.792 308.042C815.792 308.042 793.085 304.893 792.376 304.893C791.666 304.893 786.344 311.192 784.925 312.592C783.506 313.991 765.412 323.44 765.412 325.889C765.412 328.339 762.574 340.937 762.574 340.937C762.574 340.937 768.96 353.885 772.863 356.684C776.765 359.484 777.83 358.784 778.184 363.333C778.539 367.883 783.506 375.231 783.506 375.231C783.506 375.231 786.699 383.28 785.99 385.73C785.28 388.179 782.087 390.279 789.538 389.579C796.988 388.879 833.886 390.979 833.886 387.129C833.886 383.28 826.79 346.536 826.79 346.536L841.336 321.69Z" fill="#6C61EB"/>
<path d="M834.595 322.39L841.336 321.69C841.336 321.69 843.82 323.09 844.175 336.738C844.529 350.385 844.529 383.28 847.013 386.08C849.497 388.879 859.785 432.272 859.785 432.272C859.785 432.272 862.624 432.972 862.624 435.422C862.624 437.871 865.817 439.971 864.398 442.77C862.978 445.57 865.817 444.87 864.043 446.62C862.269 448.369 853.754 451.869 853.399 449.769C853.044 447.67 854.464 447.32 853.044 446.62C851.625 445.92 851.625 445.57 851.27 443.12C850.916 440.671 847.723 438.221 848.077 437.171C848.432 436.121 832.467 405.676 832.467 404.627C832.467 403.577 831.402 399.727 829.983 399.027C828.564 398.328 826.435 397.628 827.5 395.878C828.564 394.128 824.661 341.637 824.661 341.637L834.595 322.39Z" fill="#6C61EB"/>
<path d="M832.893 268.797C826.692 262.157 816.953 258.633 808.022 260.608C799.091 262.583 791.571 270.404 790.872 279.405C790.729 281.246 790.848 283.127 790.365 284.911C789.553 287.912 787.135 290.29 786.283 293.281C785.712 295.283 785.882 297.44 785.277 299.432C784.159 303.115 780.698 305.516 778.061 308.346C776.993 309.383 776.2 310.664 775.751 312.074C775.52 313.325 775.461 314.601 775.577 315.868C775.688 322.694 773.115 329.298 768.397 334.295C771.171 332.262 774.168 330.543 777.331 329.171C775.763 334.096 777.197 339.924 781.142 343.316C785.088 346.708 791.407 347.235 795.673 344.244C798.207 342.467 799.853 339.74 801.425 337.094L807.377 327.077C808.454 325.265 809.578 323.4 811.298 322.163C812.666 321.179 814.327 320.656 815.703 319.685C819.174 317.235 820.106 312.44 819.46 308.278C818.814 304.116 816.916 300.252 815.828 296.181C814.967 292.961 814.697 289.271 816.633 286.543C819.204 282.922 824.486 282.46 827.978 279.691C829.293 278.648 829.881 277.379 830.822 276.074C831.692 274.869 831.913 275.301 833.26 275.246C836.959 275.094 834.264 270.264 832.893 268.797Z" fill="#2F2E41"/>
<path d="M815.229 292.229C816.13 292.229 816.86 290.5 816.86 288.369C816.86 286.237 816.13 284.508 815.229 284.508C814.328 284.508 813.598 286.237 813.598 288.369C813.598 290.5 814.328 292.229 815.229 292.229Z" fill="#FFB9B9"/>
<path d="M1159.62 600.071C1171.15 600.071 1180.49 590.853 1180.49 579.483C1180.49 568.113 1171.15 558.896 1159.62 558.896C1148.09 558.896 1138.75 568.113 1138.75 579.483C1138.75 590.853 1148.09 600.071 1159.62 600.071Z" fill="#F2F2F2"/>
<path d="M740.872 194.761C752.399 194.761 761.744 185.544 761.744 174.174C761.744 162.804 752.399 153.587 740.872 153.587C729.345 153.587 720 162.804 720 174.174C720 185.544 729.345 194.761 740.872 194.761Z" fill="#F2F2F2"/>
<path d="M1408.13 174.174C1419.66 174.174 1429 164.957 1429 153.587C1429 142.217 1419.66 133 1408.13 133C1396.6 133 1387.26 142.217 1387.26 153.587C1387.26 164.957 1396.6 174.174 1408.13 174.174Z" fill="#F2F2F2"/>
<path d="M74.238 46.217C72.812 46.217 71.5307 45.969 70.394 45.473C69.278 44.9563 68.3997 44.2537 67.759 43.365C67.1183 42.4557 66.7877 41.412 66.767 40.234H69.774C69.8773 41.2467 70.2907 42.1043 71.014 42.807C71.758 43.489 72.8327 43.83 74.238 43.83C75.5813 43.83 76.6353 43.4993 77.4 42.838C78.1853 42.156 78.578 41.288 78.578 40.234C78.578 39.4073 78.3507 38.7357 77.896 38.219C77.4413 37.7023 76.873 37.3097 76.191 37.041C75.509 36.7723 74.5893 36.483 73.432 36.173C72.006 35.801 70.859 35.429 69.991 35.057C69.1437 34.685 68.41 34.1063 67.79 33.321C67.1907 32.515 66.891 31.4403 66.891 30.097C66.891 28.919 67.1907 27.8753 67.79 26.966C68.3893 26.0567 69.2263 25.354 70.301 24.858C71.3963 24.362 72.6467 24.114 74.052 24.114C76.0773 24.114 77.7307 24.6203 79.012 25.633C80.314 26.6457 81.0477 27.989 81.213 29.663H78.113C78.0097 28.8363 77.5757 28.113 76.811 27.493C76.0463 26.8523 75.0337 26.532 73.773 26.532C72.595 26.532 71.634 26.842 70.89 27.462C70.146 28.0613 69.774 28.9087 69.774 30.004C69.774 30.7893 69.991 31.43 70.425 31.926C70.8797 32.422 71.4273 32.8043 72.068 33.073C72.7293 33.321 73.649 33.6103 74.827 33.941C76.253 34.3337 77.4 34.7263 78.268 35.119C79.136 35.491 79.88 36.08 80.5 36.886C81.12 37.6713 81.43 38.746 81.43 40.11C81.43 41.164 81.151 42.156 80.593 43.086C80.035 44.016 79.2083 44.7703 78.113 45.349C77.0177 45.9277 75.726 46.217 74.238 46.217ZM91.1923 31.337V41.35C91.1923 42.1767 91.368 42.7657 91.7193 43.117C92.0707 43.4477 92.6803 43.613 93.5483 43.613H95.6253V46H93.0833C91.5127 46 90.3347 45.6383 89.5493 44.915C88.764 44.1917 88.3713 43.0033 88.3713 41.35V31.337H86.1703V29.012H88.3713V24.734H91.1923V29.012H95.6253V31.337H91.1923ZM116.279 29.012V46H113.458V43.489C112.921 44.357 112.167 45.039 111.195 45.535C110.245 46.0103 109.191 46.248 108.033 46.248C106.711 46.248 105.522 45.9793 104.468 45.442C103.414 44.884 102.577 44.0573 101.957 42.962C101.358 41.8667 101.058 40.5337 101.058 38.963V29.012H103.848V38.591C103.848 40.265 104.272 41.5567 105.119 42.466C105.967 43.3547 107.124 43.799 108.591 43.799C110.1 43.799 111.288 43.334 112.156 42.404C113.024 41.474 113.458 40.1203 113.458 38.343V29.012H116.279ZM122.158 37.444C122.158 35.708 122.51 34.189 123.212 32.887C123.915 31.5643 124.876 30.5413 126.095 29.818C127.335 29.0947 128.72 28.733 130.249 28.733C131.572 28.733 132.802 29.043 133.938 29.663C135.075 30.2623 135.943 31.058 136.542 32.05V23.06H139.394V46H136.542V42.807C135.984 43.8197 135.158 44.6567 134.062 45.318C132.967 45.9587 131.686 46.279 130.218 46.279C128.71 46.279 127.335 45.907 126.095 45.163C124.876 44.419 123.915 43.3753 123.212 42.032C122.51 40.6887 122.158 39.1593 122.158 37.444ZM136.542 37.475C136.542 36.1937 136.284 35.0777 135.767 34.127C135.251 33.1763 134.548 32.453 133.659 31.957C132.791 31.4403 131.83 31.182 130.776 31.182C129.722 31.182 128.761 31.43 127.893 31.926C127.025 32.422 126.333 33.1453 125.816 34.096C125.3 35.0467 125.041 36.1627 125.041 37.444C125.041 38.746 125.3 39.8827 125.816 40.854C126.333 41.8047 127.025 42.5383 127.893 43.055C128.761 43.551 129.722 43.799 130.776 43.799C131.83 43.799 132.791 43.551 133.659 43.055C134.548 42.5383 135.251 41.8047 135.767 40.854C136.284 39.8827 136.542 38.7563 136.542 37.475ZM160.964 29.012L150.734 53.998H147.82L151.168 45.814L144.317 29.012H147.448L152.78 42.776L158.05 29.012H160.964ZM178.741 41.195H169.317L167.581 46H164.605L172.417 24.517H175.672L183.453 46H180.477L178.741 41.195ZM177.935 38.901L174.029 27.989L170.123 38.901H177.935ZM191.849 32.143C192.407 31.1717 193.234 30.3657 194.329 29.725C195.445 29.0637 196.737 28.733 198.204 28.733C199.713 28.733 201.077 29.0947 202.296 29.818C203.536 30.5413 204.507 31.5643 205.21 32.887C205.913 34.189 206.264 35.708 206.264 37.444C206.264 39.1593 205.913 40.6887 205.21 42.032C204.507 43.3753 203.536 44.419 202.296 45.163C201.077 45.907 199.713 46.279 198.204 46.279C196.757 46.279 195.476 45.9587 194.36 45.318C193.265 44.6567 192.428 43.8403 191.849 42.869V54.06H189.028V29.012H191.849V32.143ZM203.381 37.444C203.381 36.1627 203.123 35.0467 202.606 34.096C202.089 33.1453 201.387 32.422 200.498 31.926C199.63 31.43 198.669 31.182 197.615 31.182C196.582 31.182 195.621 31.4403 194.732 31.957C193.864 32.453 193.161 33.1867 192.624 34.158C192.107 35.1087 191.849 36.2143 191.849 37.475C191.849 38.7563 192.107 39.8827 192.624 40.854C193.161 41.8047 193.864 42.5383 194.732 43.055C195.621 43.551 196.582 43.799 197.615 43.799C198.669 43.799 199.63 43.551 200.498 43.055C201.387 42.5383 202.089 41.8047 202.606 40.854C203.123 39.8827 203.381 38.746 203.381 37.444ZM214.968 32.143C215.526 31.1717 216.353 30.3657 217.448 29.725C218.564 29.0637 219.856 28.733 221.323 28.733C222.832 28.733 224.196 29.0947 225.415 29.818C226.655 30.5413 227.627 31.5643 228.329 32.887C229.032 34.189 229.383 35.708 229.383 37.444C229.383 39.1593 229.032 40.6887 228.329 42.032C227.627 43.3753 226.655 44.419 225.415 45.163C224.196 45.907 222.832 46.279 221.323 46.279C219.877 46.279 218.595 45.9587 217.479 45.318C216.384 44.6567 215.547 43.8403 214.968 42.869V54.06H212.147V29.012H214.968V32.143ZM226.5 37.444C226.5 36.1627 226.242 35.0467 225.725 34.096C225.209 33.1453 224.506 32.422 223.617 31.926C222.749 31.43 221.788 31.182 220.734 31.182C219.701 31.182 218.74 31.4403 217.851 31.957C216.983 32.453 216.281 33.1867 215.743 34.158C215.227 35.1087 214.968 36.2143 214.968 37.475C214.968 38.7563 215.227 39.8827 215.743 40.854C216.281 41.8047 216.983 42.5383 217.851 43.055C218.74 43.551 219.701 43.799 220.734 43.799C221.788 43.799 222.749 43.551 223.617 43.055C224.506 42.5383 225.209 41.8047 225.725 40.854C226.242 39.8827 226.5 38.746 226.5 37.444Z" fill="#F5F8FF"/>
<path d="M260.875 40.5781V24.1719C260.875 23.5225 260.353 23 259.703 23H243.688C241.1 23 239 25.0996 239 27.6875V43.3125C239 45.9004 241.1 48 243.688 48H259.703C260.353 48 260.875 47.4775 260.875 46.8281V46.0469C260.875 45.6807 260.704 45.3486 260.44 45.1338C260.235 44.3818 260.235 42.2383 260.44 41.4863C260.704 41.2764 260.875 40.9443 260.875 40.5781ZM245.25 29.543C245.25 29.3818 245.382 29.25 245.543 29.25H255.895C256.056 29.25 256.188 29.3818 256.188 29.543V30.5195C256.188 30.6807 256.056 30.8125 255.895 30.8125H245.543C245.382 30.8125 245.25 30.6807 245.25 30.5195V29.543ZM245.25 32.668C245.25 32.5068 245.382 32.375 245.543 32.375H255.895C256.056 32.375 256.188 32.5068 256.188 32.668V33.6445C256.188 33.8057 256.056 33.9375 255.895 33.9375H245.543C245.382 33.9375 245.25 33.8057 245.25 33.6445V32.668ZM257.623 44.875H243.688C242.823 44.875 242.125 44.1768 242.125 43.3125C242.125 42.4531 242.828 41.75 243.688 41.75H257.623C257.53 42.585 257.53 44.04 257.623 44.875Z" fill="#F5F8FF"/>
<path d="M104.078 130.778L96.473 158H90.038L84.929 138.617L79.586 158L73.19 158.039L65.858 130.778H71.708L76.505 151.916L82.043 130.778H88.127L93.353 151.799L98.189 130.778H104.078ZM130.848 146.729C130.848 147.509 130.796 148.211 130.692 148.835H114.897C115.027 150.395 115.573 151.617 116.535 152.501C117.497 153.385 118.68 153.827 120.084 153.827C122.112 153.827 123.555 152.956 124.413 151.214H130.302C129.678 153.294 128.482 155.01 126.714 156.362C124.946 157.688 122.775 158.351 120.201 158.351C118.121 158.351 116.249 157.896 114.585 156.986C112.947 156.05 111.66 154.737 110.724 153.047C109.814 151.357 109.359 149.407 109.359 147.197C109.359 144.961 109.814 142.998 110.724 141.308C111.634 139.618 112.908 138.318 114.546 137.408C116.184 136.498 118.069 136.043 120.201 136.043C122.255 136.043 124.088 136.485 125.7 137.369C127.338 138.253 128.599 139.514 129.483 141.152C130.393 142.764 130.848 144.623 130.848 146.729ZM125.193 145.169C125.167 143.765 124.66 142.647 123.672 141.815C122.684 140.957 121.475 140.528 120.045 140.528C118.693 140.528 117.549 140.944 116.613 141.776C115.703 142.582 115.144 143.713 114.936 145.169H125.193ZM143.413 129.14V158H137.953V129.14H143.413ZM150.524 147.197C150.524 144.961 150.979 143.011 151.889 141.347C152.799 139.657 154.06 138.357 155.672 137.447C157.284 136.511 159.13 136.043 161.21 136.043C163.888 136.043 166.098 136.719 167.84 138.071C169.608 139.397 170.791 141.269 171.389 143.687H165.5C165.188 142.751 164.655 142.023 163.901 141.503C163.173 140.957 162.263 140.684 161.171 140.684C159.611 140.684 158.376 141.256 157.466 142.4C156.556 143.518 156.101 145.117 156.101 147.197C156.101 149.251 156.556 150.85 157.466 151.994C158.376 153.112 159.611 153.671 161.171 153.671C163.381 153.671 164.824 152.683 165.5 150.707H171.389C170.791 153.047 169.608 154.906 167.84 156.284C166.072 157.662 163.862 158.351 161.21 158.351C159.13 158.351 157.284 157.896 155.672 156.986C154.06 156.05 152.799 154.75 151.889 153.086C150.979 151.396 150.524 149.433 150.524 147.197ZM188.103 158.351C186.023 158.351 184.151 157.896 182.487 156.986C180.823 156.05 179.51 154.737 178.548 153.047C177.612 151.357 177.144 149.407 177.144 147.197C177.144 144.987 177.625 143.037 178.587 141.347C179.575 139.657 180.914 138.357 182.604 137.447C184.294 136.511 186.179 136.043 188.259 136.043C190.339 136.043 192.224 136.511 193.914 137.447C195.604 138.357 196.93 139.657 197.892 141.347C198.88 143.037 199.374 144.987 199.374 147.197C199.374 149.407 198.867 151.357 197.853 153.047C196.865 154.737 195.513 156.05 193.797 156.986C192.107 157.896 190.209 158.351 188.103 158.351ZM188.103 153.593C189.091 153.593 190.014 153.359 190.872 152.891C191.756 152.397 192.458 151.669 192.978 150.707C193.498 149.745 193.758 148.575 193.758 147.197C193.758 145.143 193.212 143.57 192.12 142.478C191.054 141.36 189.741 140.801 188.181 140.801C186.621 140.801 185.308 141.36 184.242 142.478C183.202 143.57 182.682 145.143 182.682 147.197C182.682 149.251 183.189 150.837 184.203 151.955C185.243 153.047 186.543 153.593 188.103 153.593ZM233.331 136.082C235.983 136.082 238.115 136.901 239.727 138.539C241.365 140.151 242.184 142.413 242.184 145.325V158H236.724V146.066C236.724 144.376 236.295 143.089 235.437 142.205C234.579 141.295 233.409 140.84 231.927 140.84C230.445 140.84 229.262 141.295 228.378 142.205C227.52 143.089 227.091 144.376 227.091 146.066V158H221.631V146.066C221.631 144.376 221.202 143.089 220.344 142.205C219.486 141.295 218.316 140.84 216.834 140.84C215.326 140.84 214.13 141.295 213.246 142.205C212.388 143.089 211.959 144.376 211.959 146.066V158H206.499V136.394H211.959V139.007C212.661 138.097 213.558 137.382 214.65 136.862C215.768 136.342 216.99 136.082 218.316 136.082C220.006 136.082 221.514 136.446 222.84 137.174C224.166 137.876 225.193 138.89 225.921 140.216C226.623 138.968 227.637 137.967 228.963 137.213C230.315 136.459 231.771 136.082 233.331 136.082ZM270.57 146.729C270.57 147.509 270.518 148.211 270.414 148.835H254.619C254.749 150.395 255.295 151.617 256.257 152.501C257.219 153.385 258.402 153.827 259.806 153.827C261.834 153.827 263.277 152.956 264.135 151.214H270.024C269.4 153.294 268.204 155.01 266.436 156.362C264.668 157.688 262.497 158.351 259.923 158.351C257.843 158.351 255.971 157.896 254.307 156.986C252.669 156.05 251.382 154.737 250.446 153.047C249.536 151.357 249.081 149.407 249.081 147.197C249.081 144.961 249.536 142.998 250.446 141.308C251.356 139.618 252.63 138.318 254.268 137.408C255.906 136.498 257.791 136.043 259.923 136.043C261.977 136.043 263.81 136.485 265.422 137.369C267.06 138.253 268.321 139.514 269.205 141.152C270.115 142.764 270.57 144.623 270.57 146.729ZM264.915 145.169C264.889 143.765 264.382 142.647 263.394 141.815C262.406 140.957 261.197 140.528 259.767 140.528C258.415 140.528 257.271 140.944 256.335 141.776C255.425 142.582 254.866 143.713 254.658 145.169H264.915ZM296.445 140.879V151.331C296.445 152.059 296.614 152.592 296.952 152.93C297.316 153.242 297.914 153.398 298.746 153.398H301.281V158H297.849C293.247 158 290.946 155.764 290.946 151.292V140.879H288.372V136.394H290.946V131.051H296.445V136.394H301.281V140.879H296.445ZM317.923 158.351C315.843 158.351 313.971 157.896 312.307 156.986C310.643 156.05 309.33 154.737 308.368 153.047C307.432 151.357 306.964 149.407 306.964 147.197C306.964 144.987 307.445 143.037 308.407 141.347C309.395 139.657 310.734 138.357 312.424 137.447C314.114 136.511 315.999 136.043 318.079 136.043C320.159 136.043 322.044 136.511 323.734 137.447C325.424 138.357 326.75 139.657 327.712 141.347C328.7 143.037 329.194 144.987 329.194 147.197C329.194 149.407 328.687 151.357 327.673 153.047C326.685 154.737 325.333 156.05 323.617 156.986C321.927 157.896 320.029 158.351 317.923 158.351ZM317.923 153.593C318.911 153.593 319.834 153.359 320.692 152.891C321.576 152.397 322.278 151.669 322.798 150.707C323.318 149.745 323.578 148.575 323.578 147.197C323.578 145.143 323.032 143.57 321.94 142.478C320.874 141.36 319.561 140.801 318.001 140.801C316.441 140.801 315.128 141.36 314.062 142.478C313.022 143.57 312.502 145.143 312.502 147.197C312.502 149.251 313.009 150.837 314.023 151.955C315.063 153.047 316.363 153.593 317.923 153.593ZM358.131 158.273C356.233 158.273 354.517 157.948 352.983 157.298C351.475 156.648 350.279 155.712 349.395 154.49C348.511 153.268 348.056 151.825 348.03 150.161H353.88C353.958 151.279 354.348 152.163 355.05 152.813C355.778 153.463 356.766 153.788 358.014 153.788C359.288 153.788 360.289 153.489 361.017 152.891C361.745 152.267 362.109 151.461 362.109 150.473C362.109 149.667 361.862 149.004 361.368 148.484C360.874 147.964 360.25 147.561 359.496 147.275C358.768 146.963 357.754 146.625 356.454 146.261C354.686 145.741 353.243 145.234 352.125 144.74C351.033 144.22 350.084 143.453 349.278 142.439C348.498 141.399 348.108 140.021 348.108 138.305C348.108 136.693 348.511 135.289 349.317 134.093C350.123 132.897 351.254 131.987 352.71 131.363C354.166 130.713 355.83 130.388 357.702 130.388C360.51 130.388 362.785 131.077 364.527 132.455C366.295 133.807 367.27 135.705 367.452 138.149H361.446C361.394 137.213 360.991 136.446 360.237 135.848C359.509 135.224 358.534 134.912 357.312 134.912C356.246 134.912 355.388 135.185 354.738 135.731C354.114 136.277 353.802 137.07 353.802 138.11C353.802 138.838 354.036 139.449 354.504 139.943C354.998 140.411 355.596 140.801 356.298 141.113C357.026 141.399 358.04 141.737 359.34 142.127C361.108 142.647 362.551 143.167 363.669 143.687C364.787 144.207 365.749 144.987 366.555 146.027C367.361 147.067 367.764 148.432 367.764 150.122C367.764 151.578 367.387 152.93 366.633 154.178C365.879 155.426 364.774 156.427 363.318 157.181C361.862 157.909 360.133 158.273 358.131 158.273ZM381.974 140.879V151.331C381.974 152.059 382.143 152.592 382.481 152.93C382.845 153.242 383.443 153.398 384.275 153.398H386.81V158H383.378C378.776 158 376.475 155.764 376.475 151.292V140.879H373.901V136.394H376.475V131.051H381.974V136.394H386.81V140.879H381.974ZM414.254 136.394V158H408.755V155.27C408.053 156.206 407.13 156.947 405.986 157.493C404.868 158.013 403.646 158.273 402.32 158.273C400.63 158.273 399.135 157.922 397.835 157.22C396.535 156.492 395.508 155.439 394.754 154.061C394.026 152.657 393.662 150.993 393.662 149.069V136.394H399.122V148.289C399.122 150.005 399.551 151.331 400.409 152.267C401.267 153.177 402.437 153.632 403.919 153.632C405.427 153.632 406.61 153.177 407.468 152.267C408.326 151.331 408.755 150.005 408.755 148.289V136.394H414.254ZM421.358 147.119C421.358 144.935 421.787 142.998 422.645 141.308C423.529 139.618 424.725 138.318 426.233 137.408C427.741 136.498 429.418 136.043 431.264 136.043C432.668 136.043 434.007 136.355 435.281 136.979C436.555 137.577 437.569 138.383 438.323 139.397V129.14H443.861V158H438.323V154.802C437.647 155.868 436.698 156.726 435.476 157.376C434.254 158.026 432.837 158.351 431.225 158.351C429.405 158.351 427.741 157.883 426.233 156.947C424.725 156.011 423.529 154.698 422.645 153.008C421.787 151.292 421.358 149.329 421.358 147.119ZM438.362 147.197C438.362 145.871 438.102 144.74 437.582 143.804C437.062 142.842 436.36 142.114 435.476 141.62C434.592 141.1 433.643 140.84 432.629 140.84C431.615 140.84 430.679 141.087 429.821 141.581C428.963 142.075 428.261 142.803 427.715 143.765C427.195 144.701 426.935 145.819 426.935 147.119C426.935 148.419 427.195 149.563 427.715 150.551C428.261 151.513 428.963 152.254 429.821 152.774C430.705 153.294 431.641 153.554 432.629 153.554C433.643 153.554 434.592 153.307 435.476 152.813C436.36 152.293 437.062 151.565 437.582 150.629C438.102 149.667 438.362 148.523 438.362 147.197ZM472.983 136.394L459.606 168.218H453.795L458.475 157.454L449.817 136.394H455.94L461.517 151.487L467.172 136.394H472.983ZM495.739 152.813H484.897L483.103 158H477.37L487.159 130.739H493.516L503.305 158H497.533L495.739 152.813ZM494.257 148.445L490.318 137.057L486.379 148.445H494.257ZM515.544 139.514C516.246 138.526 517.208 137.707 518.43 137.057C519.678 136.381 521.095 136.043 522.681 136.043C524.527 136.043 526.191 136.498 527.673 137.408C529.181 138.318 530.364 139.618 531.222 141.308C532.106 142.972 532.548 144.909 532.548 147.119C532.548 149.329 532.106 151.292 531.222 153.008C530.364 154.698 529.181 156.011 527.673 156.947C526.191 157.883 524.527 158.351 522.681 158.351C521.095 158.351 519.691 158.026 518.469 157.376C517.273 156.726 516.298 155.907 515.544 154.919V168.296H510.084V136.394H515.544V139.514ZM526.971 147.119C526.971 145.819 526.698 144.701 526.152 143.765C525.632 142.803 524.93 142.075 524.046 141.581C523.188 141.087 522.252 140.84 521.238 140.84C520.25 140.84 519.314 141.1 518.43 141.62C517.572 142.114 516.87 142.842 516.324 143.804C515.804 144.766 515.544 145.897 515.544 147.197C515.544 148.497 515.804 149.628 516.324 150.59C516.87 151.552 517.572 152.293 518.43 152.813C519.314 153.307 520.25 153.554 521.238 153.554C522.252 153.554 523.188 153.294 524.046 152.774C524.93 152.254 525.632 151.513 526.152 150.551C526.698 149.589 526.971 148.445 526.971 147.119ZM545.095 139.514C545.797 138.526 546.759 137.707 547.981 137.057C549.229 136.381 550.646 136.043 552.232 136.043C554.078 136.043 555.742 136.498 557.224 137.408C558.732 138.318 559.915 139.618 560.773 141.308C561.657 142.972 562.099 144.909 562.099 147.119C562.099 149.329 561.657 151.292 560.773 153.008C559.915 154.698 558.732 156.011 557.224 156.947C555.742 157.883 554.078 158.351 552.232 158.351C550.646 158.351 549.242 158.026 548.02 157.376C546.824 156.726 545.849 155.907 545.095 154.919V168.296H539.635V136.394H545.095V139.514ZM556.522 147.119C556.522 145.819 556.249 144.701 555.703 143.765C555.183 142.803 554.481 142.075 553.597 141.581C552.739 141.087 551.803 140.84 550.789 140.84C549.801 140.84 548.865 141.1 547.981 141.62C547.123 142.114 546.421 142.842 545.875 143.804C545.355 144.766 545.095 145.897 545.095 147.197C545.095 148.497 545.355 149.628 545.875 150.59C546.421 151.552 547.123 152.293 547.981 152.813C548.865 153.307 549.801 153.554 550.789 153.554C551.803 153.554 552.739 153.294 553.597 152.774C554.481 152.254 555.183 151.513 555.703 150.551C556.249 149.589 556.522 148.445 556.522 147.119ZM576.246 130.31L575.622 149.147H571.02L570.357 130.31H576.246ZM573.438 158.273C572.45 158.273 571.631 157.974 570.981 157.376C570.357 156.752 570.045 155.985 570.045 155.075C570.045 154.165 570.357 153.411 570.981 152.813C571.631 152.189 572.45 151.877 573.438 151.877C574.4 151.877 575.193 152.189 575.817 152.813C576.441 153.411 576.753 154.165 576.753 155.075C576.753 155.985 576.441 156.752 575.817 157.376C575.193 157.974 574.4 158.273 573.438 158.273Z" fill="#3E3D57"/>
<g filter="url(#filter0_d)">
<rect x="65" y="238" width="564" height="572" rx="9" fill="white"/>
<rect x="66" y="239" width="562" height="570" rx="8" stroke="#3E3D57" stroke-opacity="0.31" stroke-width="2"/>
</g>
<path d="M70.662 199.133C69.788 199.133 69.0027 198.981 68.306 198.677C67.622 198.36 67.0837 197.93 66.691 197.385C66.2983 196.828 66.0957 196.188 66.083 195.466H67.926C67.9893 196.087 68.2427 196.612 68.686 197.043C69.142 197.461 69.8007 197.67 70.662 197.67C71.4853 197.67 72.1313 197.467 72.6 197.062C73.0813 196.644 73.322 196.112 73.322 195.466C73.322 194.959 73.1827 194.548 72.904 194.231C72.6253 193.914 72.277 193.674 71.859 193.509C71.441 193.344 70.8773 193.167 70.168 192.977C69.294 192.749 68.591 192.521 68.059 192.293C67.5397 192.065 67.09 191.71 66.71 191.229C66.3427 190.735 66.159 190.076 66.159 189.253C66.159 188.531 66.3427 187.891 66.71 187.334C67.0773 186.777 67.5903 186.346 68.249 186.042C68.9203 185.738 69.6867 185.586 70.548 185.586C71.7893 185.586 72.8027 185.896 73.588 186.517C74.386 187.138 74.8357 187.961 74.937 188.987H73.037C72.9737 188.48 72.7077 188.037 72.239 187.657C71.7703 187.264 71.1497 187.068 70.377 187.068C69.655 187.068 69.066 187.258 68.61 187.638C68.154 188.005 67.926 188.525 67.926 189.196C67.926 189.677 68.059 190.07 68.325 190.374C68.6037 190.678 68.9393 190.912 69.332 191.077C69.7373 191.229 70.301 191.406 71.023 191.609C71.897 191.85 72.6 192.09 73.132 192.331C73.664 192.559 74.12 192.92 74.5 193.414C74.88 193.895 75.07 194.554 75.07 195.39C75.07 196.036 74.899 196.644 74.557 197.214C74.215 197.784 73.7083 198.246 73.037 198.601C72.3657 198.956 71.574 199.133 70.662 199.133ZM79.8374 186.897C79.508 186.897 79.2294 186.783 79.0014 186.555C78.7734 186.327 78.6594 186.048 78.6594 185.719C78.6594 185.39 78.7734 185.111 79.0014 184.883C79.2294 184.655 79.508 184.541 79.8374 184.541C80.154 184.541 80.42 184.655 80.6354 184.883C80.8634 185.111 80.9774 185.39 80.9774 185.719C80.9774 186.048 80.8634 186.327 80.6354 186.555C80.42 186.783 80.154 186.897 79.8374 186.897ZM80.6734 188.588V199H78.9444V188.588H80.6734ZM89.2441 188.417C90.1435 188.417 90.9288 188.613 91.6001 189.006C92.2841 189.399 92.7908 189.893 93.1201 190.488V188.588H94.8681V199.228C94.8681 200.178 94.6655 201.02 94.2601 201.755C93.8548 202.502 93.2721 203.085 92.5121 203.503C91.7648 203.921 90.8908 204.13 89.8901 204.13C88.5221 204.13 87.3821 203.807 86.4701 203.161C85.5581 202.515 85.0198 201.635 84.8551 200.52H86.5651C86.7551 201.153 87.1478 201.66 87.7431 202.04C88.3385 202.433 89.0541 202.629 89.8901 202.629C90.8401 202.629 91.6128 202.331 92.2081 201.736C92.8161 201.141 93.1201 200.305 93.1201 199.228V197.043C92.7781 197.651 92.2715 198.158 91.6001 198.563C90.9288 198.968 90.1435 199.171 89.2441 199.171C88.3195 199.171 87.4771 198.943 86.7171 198.487C85.9698 198.031 85.3808 197.391 84.9501 196.568C84.5195 195.745 84.3041 194.807 84.3041 193.756C84.3041 192.692 84.5195 191.761 84.9501 190.963C85.3808 190.152 85.9698 189.525 86.7171 189.082C87.4771 188.639 88.3195 188.417 89.2441 188.417ZM93.1201 193.775C93.1201 192.99 92.9618 192.306 92.6451 191.723C92.3285 191.14 91.8978 190.697 91.3531 190.393C90.8211 190.076 90.2321 189.918 89.5861 189.918C88.9401 189.918 88.3511 190.07 87.8191 190.374C87.2871 190.678 86.8628 191.121 86.5461 191.704C86.2295 192.287 86.0711 192.971 86.0711 193.756C86.0711 194.554 86.2295 195.251 86.5461 195.846C86.8628 196.429 87.2871 196.878 87.8191 197.195C88.3511 197.499 88.9401 197.651 89.5861 197.651C90.2321 197.651 90.8211 197.499 91.3531 197.195C91.8978 196.878 92.3285 196.429 92.6451 195.846C92.9618 195.251 93.1201 194.56 93.1201 193.775ZM104.193 188.398C105.46 188.398 106.486 188.784 107.271 189.557C108.056 190.317 108.449 191.419 108.449 192.863V199H106.739V193.11C106.739 192.071 106.479 191.28 105.96 190.735C105.441 190.178 104.731 189.899 103.832 189.899C102.92 189.899 102.192 190.184 101.647 190.754C101.115 191.324 100.849 192.154 100.849 193.243V199H99.12V188.588H100.849V190.07C101.191 189.538 101.653 189.126 102.236 188.835C102.831 188.544 103.484 188.398 104.193 188.398ZM128.233 188.588V199H126.504V197.461C126.174 197.993 125.712 198.411 125.117 198.715C124.534 199.006 123.888 199.152 123.179 199.152C122.368 199.152 121.64 198.987 120.994 198.658C120.348 198.316 119.835 197.809 119.455 197.138C119.087 196.467 118.904 195.65 118.904 194.687V188.588H120.614V194.459C120.614 195.485 120.873 196.277 121.393 196.834C121.912 197.379 122.621 197.651 123.521 197.651C124.445 197.651 125.174 197.366 125.706 196.796C126.238 196.226 126.504 195.396 126.504 194.307V188.588H128.233ZM134.211 190.507C134.553 189.912 135.06 189.418 135.731 189.025C136.415 188.62 137.207 188.417 138.106 188.417C139.031 188.417 139.867 188.639 140.614 189.082C141.374 189.525 141.969 190.152 142.4 190.963C142.831 191.761 143.046 192.692 143.046 193.756C143.046 194.807 142.831 195.745 142.4 196.568C141.969 197.391 141.374 198.031 140.614 198.487C139.867 198.943 139.031 199.171 138.106 199.171C137.219 199.171 136.434 198.975 135.75 198.582C135.079 198.177 134.566 197.676 134.211 197.081V203.94H132.482V188.588H134.211V190.507ZM141.279 193.756C141.279 192.971 141.121 192.287 140.804 191.704C140.487 191.121 140.057 190.678 139.512 190.374C138.98 190.07 138.391 189.918 137.745 189.918C137.112 189.918 136.523 190.076 135.978 190.393C135.446 190.697 135.015 191.147 134.686 191.742C134.369 192.325 134.211 193.002 134.211 193.775C134.211 194.56 134.369 195.251 134.686 195.846C135.015 196.429 135.446 196.878 135.978 197.195C136.523 197.499 137.112 197.651 137.745 197.651C138.391 197.651 138.98 197.499 139.512 197.195C140.057 196.878 140.487 196.429 140.804 195.846C141.121 195.251 141.279 194.554 141.279 193.756ZM157.284 190.013H155.099V199H153.37V190.013H152.021V188.588H153.37V187.847C153.37 186.682 153.668 185.833 154.263 185.301C154.871 184.756 155.84 184.484 157.17 184.484V185.928C156.41 185.928 155.872 186.08 155.555 186.384C155.251 186.675 155.099 187.163 155.099 187.847V188.588H157.284V190.013ZM165.171 199.171C164.196 199.171 163.309 198.949 162.511 198.506C161.726 198.063 161.105 197.436 160.649 196.625C160.206 195.802 159.984 194.852 159.984 193.775C159.984 192.711 160.212 191.774 160.668 190.963C161.137 190.14 161.77 189.513 162.568 189.082C163.366 188.639 164.259 188.417 165.247 188.417C166.235 188.417 167.128 188.639 167.926 189.082C168.724 189.513 169.351 190.133 169.807 190.944C170.276 191.755 170.51 192.698 170.51 193.775C170.51 194.852 170.27 195.802 169.788 196.625C169.32 197.436 168.68 198.063 167.869 198.506C167.059 198.949 166.159 199.171 165.171 199.171ZM165.171 197.651C165.792 197.651 166.375 197.505 166.919 197.214C167.464 196.923 167.901 196.486 168.23 195.903C168.572 195.32 168.743 194.611 168.743 193.775C168.743 192.939 168.579 192.23 168.249 191.647C167.92 191.064 167.489 190.634 166.957 190.355C166.425 190.064 165.849 189.918 165.228 189.918C164.595 189.918 164.012 190.064 163.48 190.355C162.961 190.634 162.543 191.064 162.226 191.647C161.91 192.23 161.751 192.939 161.751 193.775C161.751 194.624 161.903 195.339 162.207 195.922C162.524 196.505 162.942 196.942 163.461 197.233C163.981 197.512 164.551 197.651 165.171 197.651ZM175.843 190.279C176.147 189.684 176.577 189.221 177.135 188.892C177.705 188.563 178.395 188.398 179.206 188.398V190.184H178.75C176.812 190.184 175.843 191.235 175.843 193.338V199H174.114V188.588H175.843V190.279ZM197.895 188.588L191.625 203.902H189.839L191.891 198.886L187.692 188.588H189.611L192.879 197.024L196.109 188.588H197.895ZM205.504 199.171C204.529 199.171 203.642 198.949 202.844 198.506C202.059 198.063 201.438 197.436 200.982 196.625C200.539 195.802 200.317 194.852 200.317 193.775C200.317 192.711 200.545 191.774 201.001 190.963C201.47 190.14 202.103 189.513 202.901 189.082C203.699 188.639 204.592 188.417 205.58 188.417C206.568 188.417 207.461 188.639 208.259 189.082C209.057 189.513 209.684 190.133 210.14 190.944C210.609 191.755 210.843 192.698 210.843 193.775C210.843 194.852 210.602 195.802 210.121 196.625C209.652 197.436 209.013 198.063 208.202 198.506C207.391 198.949 206.492 199.171 205.504 199.171ZM205.504 197.651C206.125 197.651 206.707 197.505 207.252 197.214C207.797 196.923 208.234 196.486 208.563 195.903C208.905 195.32 209.076 194.611 209.076 193.775C209.076 192.939 208.911 192.23 208.582 191.647C208.253 191.064 207.822 190.634 207.29 190.355C206.758 190.064 206.182 189.918 205.561 189.918C204.928 189.918 204.345 190.064 203.813 190.355C203.294 190.634 202.876 191.064 202.559 191.647C202.242 192.23 202.084 192.939 202.084 193.775C202.084 194.624 202.236 195.339 202.54 195.922C202.857 196.505 203.275 196.942 203.794 197.233C204.313 197.512 204.883 197.651 205.504 197.651ZM223.68 188.588V199H221.951V197.461C221.622 197.993 221.16 198.411 220.564 198.715C219.982 199.006 219.336 199.152 218.626 199.152C217.816 199.152 217.087 198.987 216.441 198.658C215.795 198.316 215.282 197.809 214.902 197.138C214.535 196.467 214.351 195.65 214.351 194.687V188.588H216.061V194.459C216.061 195.485 216.321 196.277 216.84 196.834C217.36 197.379 218.069 197.651 218.968 197.651C219.893 197.651 220.621 197.366 221.153 196.796C221.685 196.226 221.951 195.396 221.951 194.307V188.588H223.68ZM229.659 190.279C229.963 189.684 230.393 189.221 230.951 188.892C231.521 188.563 232.211 188.398 233.022 188.398V190.184H232.566C230.628 190.184 229.659 191.235 229.659 193.338V199H227.93V188.588H229.659V190.279ZM246.98 190.013H244.795V199H243.066V190.013H241.717V188.588H243.066V187.847C243.066 186.682 243.364 185.833 243.959 185.301C244.567 184.756 245.536 184.484 246.866 184.484V185.928C246.106 185.928 245.568 186.08 245.251 186.384C244.947 186.675 244.795 187.163 244.795 187.847V188.588H246.98V190.013ZM252.055 190.279C252.359 189.684 252.79 189.221 253.347 188.892C253.917 188.563 254.607 188.398 255.418 188.398V190.184H254.962C253.024 190.184 252.055 191.235 252.055 193.338V199H250.326V188.588H252.055V190.279ZM268.244 193.395C268.244 193.724 268.225 194.073 268.187 194.44H259.865C259.928 195.466 260.276 196.27 260.91 196.853C261.556 197.423 262.335 197.708 263.247 197.708C263.994 197.708 264.615 197.537 265.109 197.195C265.615 196.84 265.97 196.372 266.173 195.789H268.035C267.756 196.79 267.199 197.607 266.363 198.24C265.527 198.861 264.488 199.171 263.247 199.171C262.259 199.171 261.372 198.949 260.587 198.506C259.814 198.063 259.206 197.436 258.763 196.625C258.319 195.802 258.098 194.852 258.098 193.775C258.098 192.698 258.313 191.755 258.744 190.944C259.174 190.133 259.776 189.513 260.549 189.082C261.334 188.639 262.233 188.417 263.247 188.417C264.235 188.417 265.109 188.632 265.869 189.063C266.629 189.494 267.211 190.089 267.617 190.849C268.035 191.596 268.244 192.445 268.244 193.395ZM266.458 193.034C266.458 192.375 266.312 191.812 266.021 191.343C265.729 190.862 265.33 190.501 264.824 190.26C264.33 190.007 263.779 189.88 263.171 189.88C262.297 189.88 261.549 190.159 260.929 190.716C260.321 191.273 259.972 192.046 259.884 193.034H266.458ZM281.356 193.395C281.356 193.724 281.337 194.073 281.299 194.44H272.977C273.04 195.466 273.389 196.27 274.022 196.853C274.668 197.423 275.447 197.708 276.359 197.708C277.106 197.708 277.727 197.537 278.221 197.195C278.728 196.84 279.082 196.372 279.285 195.789H281.147C280.868 196.79 280.311 197.607 279.475 198.24C278.639 198.861 277.6 199.171 276.359 199.171C275.371 199.171 274.484 198.949 273.699 198.506C272.926 198.063 272.318 197.436 271.875 196.625C271.432 195.802 271.21 194.852 271.21 193.775C271.21 192.698 271.425 191.755 271.856 190.944C272.287 190.133 272.888 189.513 273.661 189.082C274.446 188.639 275.346 188.417 276.359 188.417C277.347 188.417 278.221 188.632 278.981 189.063C279.741 189.494 280.324 190.089 280.729 190.849C281.147 191.596 281.356 192.445 281.356 193.395ZM279.57 193.034C279.57 192.375 279.424 191.812 279.133 191.343C278.842 190.862 278.443 190.501 277.936 190.26C277.442 190.007 276.891 189.88 276.283 189.88C275.409 189.88 274.662 190.159 274.041 190.716C273.433 191.273 273.085 192.046 272.996 193.034H279.57ZM290.718 193.756C290.718 192.692 290.933 191.761 291.364 190.963C291.794 190.152 292.383 189.525 293.131 189.082C293.891 188.639 294.733 188.417 295.658 188.417C296.57 188.417 297.361 188.613 298.033 189.006C298.704 189.399 299.204 189.893 299.534 190.488V188.588H301.282V199H299.534V197.062C299.192 197.67 298.679 198.177 297.995 198.582C297.323 198.975 296.538 199.171 295.639 199.171C294.714 199.171 293.878 198.943 293.131 198.487C292.383 198.031 291.794 197.391 291.364 196.568C290.933 195.745 290.718 194.807 290.718 193.756ZM299.534 193.775C299.534 192.99 299.375 192.306 299.059 191.723C298.742 191.14 298.311 190.697 297.767 190.393C297.235 190.076 296.646 189.918 296 189.918C295.354 189.918 294.765 190.07 294.233 190.374C293.701 190.678 293.276 191.121 292.96 191.704C292.643 192.287 292.485 192.971 292.485 193.756C292.485 194.554 292.643 195.251 292.96 195.846C293.276 196.429 293.701 196.878 294.233 197.195C294.765 197.499 295.354 197.651 296 197.651C296.646 197.651 297.235 197.499 297.767 197.195C298.311 196.878 298.742 196.429 299.059 195.846C299.375 195.251 299.534 194.56 299.534 193.775ZM304.887 193.775C304.887 192.698 305.103 191.761 305.533 190.963C305.964 190.152 306.559 189.525 307.319 189.082C308.092 188.639 308.972 188.417 309.96 188.417C311.24 188.417 312.291 188.727 313.114 189.348C313.95 189.969 314.501 190.83 314.767 191.932H312.905C312.728 191.299 312.38 190.798 311.86 190.431C311.354 190.064 310.72 189.88 309.96 189.88C308.972 189.88 308.174 190.222 307.566 190.906C306.958 191.577 306.654 192.534 306.654 193.775C306.654 195.029 306.958 195.998 307.566 196.682C308.174 197.366 308.972 197.708 309.96 197.708C310.72 197.708 311.354 197.531 311.86 197.176C312.367 196.821 312.715 196.315 312.905 195.656H314.767C314.489 196.72 313.931 197.575 313.095 198.221C312.259 198.854 311.214 199.171 309.96 199.171C308.972 199.171 308.092 198.949 307.319 198.506C306.559 198.063 305.964 197.436 305.533 196.625C305.103 195.814 304.887 194.864 304.887 193.775ZM322.945 199.171C321.97 199.171 321.083 198.949 320.285 198.506C319.5 198.063 318.879 197.436 318.423 196.625C317.98 195.802 317.758 194.852 317.758 193.775C317.758 192.711 317.986 191.774 318.442 190.963C318.911 190.14 319.544 189.513 320.342 189.082C321.14 188.639 322.033 188.417 323.021 188.417C324.009 188.417 324.902 188.639 325.7 189.082C326.498 189.513 327.125 190.133 327.581 190.944C328.05 191.755 328.284 192.698 328.284 193.775C328.284 194.852 328.044 195.802 327.562 196.625C327.094 197.436 326.454 198.063 325.643 198.506C324.833 198.949 323.933 199.171 322.945 199.171ZM322.945 197.651C323.566 197.651 324.149 197.505 324.693 197.214C325.238 196.923 325.675 196.486 326.004 195.903C326.346 195.32 326.517 194.611 326.517 193.775C326.517 192.939 326.353 192.23 326.023 191.647C325.694 191.064 325.263 190.634 324.731 190.355C324.199 190.064 323.623 189.918 323.002 189.918C322.369 189.918 321.786 190.064 321.254 190.355C320.735 190.634 320.317 191.064 320 191.647C319.684 192.23 319.525 192.939 319.525 193.775C319.525 194.624 319.677 195.339 319.981 195.922C320.298 196.505 320.716 196.942 321.235 197.233C321.755 197.512 322.325 197.651 322.945 197.651ZM341.122 188.588V199H339.393V197.461C339.063 197.993 338.601 198.411 338.006 198.715C337.423 199.006 336.777 199.152 336.068 199.152C335.257 199.152 334.529 198.987 333.883 198.658C333.237 198.316 332.724 197.809 332.344 197.138C331.976 196.467 331.793 195.65 331.793 194.687V188.588H333.503V194.459C333.503 195.485 333.762 196.277 334.282 196.834C334.801 197.379 335.51 197.651 336.41 197.651C337.334 197.651 338.063 197.366 338.595 196.796C339.127 196.226 339.393 195.396 339.393 194.307V188.588H341.122ZM350.444 188.398C351.711 188.398 352.737 188.784 353.522 189.557C354.307 190.317 354.7 191.419 354.7 192.863V199H352.99V193.11C352.99 192.071 352.73 191.28 352.211 190.735C351.692 190.178 350.982 189.899 350.083 189.899C349.171 189.899 348.443 190.184 347.898 190.754C347.366 191.324 347.1 192.154 347.1 193.243V199H345.371V188.588H347.1V190.07C347.442 189.538 347.904 189.126 348.487 188.835C349.082 188.544 349.735 188.398 350.444 188.398ZM360.963 190.013V196.15C360.963 196.657 361.071 197.018 361.286 197.233C361.502 197.436 361.875 197.537 362.407 197.537H363.68V199H362.122C361.16 199 360.438 198.778 359.956 198.335C359.475 197.892 359.234 197.163 359.234 196.15V190.013H357.885V188.588H359.234V185.966H360.963V188.588H363.68V190.013H360.963ZM375.61 190.013V196.15C375.61 196.657 375.717 197.018 375.933 197.233C376.148 197.436 376.522 197.537 377.054 197.537H378.327V199H376.769C375.806 199 375.084 198.778 374.603 198.335C374.121 197.892 373.881 197.163 373.881 196.15V190.013H372.532V188.588H373.881V185.966H375.61V188.588H378.327V190.013H375.61ZM386.293 199.171C385.317 199.171 384.431 198.949 383.633 198.506C382.847 198.063 382.227 197.436 381.771 196.625C381.327 195.802 381.106 194.852 381.106 193.775C381.106 192.711 381.334 191.774 381.79 190.963C382.258 190.14 382.892 189.513 383.69 189.082C384.488 188.639 385.381 188.417 386.369 188.417C387.357 188.417 388.25 188.639 389.048 189.082C389.846 189.513 390.473 190.133 390.929 190.944C391.397 191.755 391.632 192.698 391.632 193.775C391.632 194.852 391.391 195.802 390.91 196.625C390.441 197.436 389.801 198.063 388.991 198.506C388.18 198.949 387.281 199.171 386.293 199.171ZM386.293 197.651C386.913 197.651 387.496 197.505 388.041 197.214C388.585 196.923 389.022 196.486 389.352 195.903C389.694 195.32 389.865 194.611 389.865 193.775C389.865 192.939 389.7 192.23 389.371 191.647C389.041 191.064 388.611 190.634 388.079 190.355C387.547 190.064 386.97 189.918 386.35 189.918C385.716 189.918 385.134 190.064 384.602 190.355C384.082 190.634 383.664 191.064 383.348 191.647C383.031 192.23 382.873 192.939 382.873 193.775C382.873 194.624 383.025 195.339 383.329 195.922C383.645 196.505 384.063 196.942 384.583 197.233C385.102 197.512 385.672 197.651 386.293 197.651ZM394.589 193.756C394.589 192.692 394.804 191.761 395.235 190.963C395.666 190.152 396.255 189.525 397.002 189.082C397.762 188.639 398.611 188.417 399.548 188.417C400.359 188.417 401.112 188.607 401.809 188.987C402.506 189.354 403.038 189.842 403.405 190.45V184.94H405.153V199H403.405V197.043C403.063 197.664 402.556 198.177 401.885 198.582C401.214 198.975 400.428 199.171 399.529 199.171C398.604 199.171 397.762 198.943 397.002 198.487C396.255 198.031 395.666 197.391 395.235 196.568C394.804 195.745 394.589 194.807 394.589 193.756ZM403.405 193.775C403.405 192.99 403.247 192.306 402.93 191.723C402.613 191.14 402.183 190.697 401.638 190.393C401.106 190.076 400.517 189.918 399.871 189.918C399.225 189.918 398.636 190.07 398.104 190.374C397.572 190.678 397.148 191.121 396.831 191.704C396.514 192.287 396.356 192.971 396.356 193.756C396.356 194.554 396.514 195.251 396.831 195.846C397.148 196.429 397.572 196.878 398.104 197.195C398.636 197.499 399.225 197.651 399.871 197.651C400.517 197.651 401.106 197.499 401.638 197.195C402.183 196.878 402.613 196.429 402.93 195.846C403.247 195.251 403.405 194.56 403.405 193.775ZM408.759 193.756C408.759 192.692 408.974 191.761 409.405 190.963C409.836 190.152 410.425 189.525 411.172 189.082C411.932 188.639 412.774 188.417 413.699 188.417C414.611 188.417 415.403 188.613 416.074 189.006C416.745 189.399 417.246 189.893 417.575 190.488V188.588H419.323V199H417.575V197.062C417.233 197.67 416.72 198.177 416.036 198.582C415.365 198.975 414.579 199.171 413.68 199.171C412.755 199.171 411.919 198.943 411.172 198.487C410.425 198.031 409.836 197.391 409.405 196.568C408.974 195.745 408.759 194.807 408.759 193.756ZM417.575 193.775C417.575 192.99 417.417 192.306 417.1 191.723C416.783 191.14 416.353 190.697 415.808 190.393C415.276 190.076 414.687 189.918 414.041 189.918C413.395 189.918 412.806 190.07 412.274 190.374C411.742 190.678 411.318 191.121 411.001 191.704C410.684 192.287 410.526 192.971 410.526 193.756C410.526 194.554 410.684 195.251 411.001 195.846C411.318 196.429 411.742 196.878 412.274 197.195C412.806 197.499 413.395 197.651 414.041 197.651C414.687 197.651 415.276 197.499 415.808 197.195C416.353 196.878 416.783 196.429 417.1 195.846C417.417 195.251 417.575 194.56 417.575 193.775ZM432.543 188.588L426.273 203.902H424.487L426.539 198.886L422.34 188.588H424.259L427.527 197.024L430.757 188.588H432.543ZM436.162 199.114C435.832 199.114 435.554 199 435.326 198.772C435.098 198.544 434.984 198.265 434.984 197.936C434.984 197.607 435.098 197.328 435.326 197.1C435.554 196.872 435.832 196.758 436.162 196.758C436.478 196.758 436.744 196.872 436.96 197.1C437.188 197.328 437.302 197.607 437.302 197.936C437.302 198.265 437.188 198.544 436.96 198.772C436.744 199 436.478 199.114 436.162 199.114Z" fill="black"/>
<rect x="1282" y="14" width="118" height="45" rx="20" fill="#6C61EB"/>
<path d="M1306.9 43.133C1306.02 43.133 1305.24 42.981 1304.54 42.677C1303.86 42.3603 1303.32 41.9297 1302.93 41.385C1302.53 40.8277 1302.33 40.188 1302.32 39.466H1304.16C1304.23 40.0867 1304.48 40.6123 1304.92 41.043C1305.38 41.461 1306.04 41.67 1306.9 41.67C1307.72 41.67 1308.37 41.4673 1308.84 41.062C1309.32 40.644 1309.56 40.112 1309.56 39.466C1309.56 38.9593 1309.42 38.5477 1309.14 38.231C1308.86 37.9143 1308.51 37.6737 1308.1 37.509C1307.68 37.3443 1307.11 37.167 1306.4 36.977C1305.53 36.749 1304.83 36.521 1304.3 36.293C1303.78 36.065 1303.33 35.7103 1302.95 35.229C1302.58 34.735 1302.4 34.0763 1302.4 33.253C1302.4 32.531 1302.58 31.8913 1302.95 31.334C1303.31 30.7767 1303.83 30.346 1304.49 30.042C1305.16 29.738 1305.92 29.586 1306.78 29.586C1308.03 29.586 1309.04 29.8963 1309.82 30.517C1310.62 31.1377 1311.07 31.961 1311.17 32.987H1309.27C1309.21 32.4803 1308.94 32.037 1308.48 31.657C1308.01 31.2643 1307.39 31.068 1306.61 31.068C1305.89 31.068 1305.3 31.258 1304.85 31.638C1304.39 32.0053 1304.16 32.5247 1304.16 33.196C1304.16 33.6773 1304.3 34.07 1304.56 34.374C1304.84 34.678 1305.18 34.9123 1305.57 35.077C1305.97 35.229 1306.54 35.4063 1307.26 35.609C1308.13 35.8497 1308.84 36.0903 1309.37 36.331C1309.9 36.559 1310.36 36.92 1310.74 37.414C1311.12 37.8953 1311.31 38.554 1311.31 39.39C1311.31 40.036 1311.14 40.644 1310.79 41.214C1310.45 41.784 1309.94 42.2463 1309.27 42.601C1308.6 42.9557 1307.81 43.133 1306.9 43.133ZM1316.07 30.897C1315.74 30.897 1315.47 30.783 1315.24 30.555C1315.01 30.327 1314.9 30.0483 1314.9 29.719C1314.9 29.3897 1315.01 29.111 1315.24 28.883C1315.47 28.655 1315.74 28.541 1316.07 28.541C1316.39 28.541 1316.66 28.655 1316.87 28.883C1317.1 29.111 1317.21 29.3897 1317.21 29.719C1317.21 30.0483 1317.1 30.327 1316.87 30.555C1316.66 30.783 1316.39 30.897 1316.07 30.897ZM1316.91 32.588V43H1315.18V32.588H1316.91ZM1325.48 32.417C1326.38 32.417 1327.17 32.6133 1327.84 33.006C1328.52 33.3987 1329.03 33.8927 1329.36 34.488V32.588H1331.1V43.228C1331.1 44.178 1330.9 45.0203 1330.5 45.755C1330.09 46.5023 1329.51 47.085 1328.75 47.503C1328 47.921 1327.13 48.13 1326.13 48.13C1324.76 48.13 1323.62 47.807 1322.71 47.161C1321.79 46.515 1321.26 45.6347 1321.09 44.52H1322.8C1322.99 45.1533 1323.38 45.66 1323.98 46.04C1324.58 46.4327 1325.29 46.629 1326.13 46.629C1327.08 46.629 1327.85 46.3313 1328.44 45.736C1329.05 45.1407 1329.36 44.3047 1329.36 43.228V41.043C1329.01 41.651 1328.51 42.1577 1327.84 42.563C1327.17 42.9683 1326.38 43.171 1325.48 43.171C1324.56 43.171 1323.71 42.943 1322.95 42.487C1322.21 42.031 1321.62 41.3913 1321.19 40.568C1320.76 39.7447 1320.54 38.8073 1320.54 37.756C1320.54 36.692 1320.76 35.761 1321.19 34.963C1321.62 34.1523 1322.21 33.5253 1322.95 33.082C1323.71 32.6387 1324.56 32.417 1325.48 32.417ZM1329.36 37.775C1329.36 36.9897 1329.2 36.3057 1328.88 35.723C1328.57 35.1403 1328.13 34.697 1327.59 34.393C1327.06 34.0763 1326.47 33.918 1325.82 33.918C1325.18 33.918 1324.59 34.07 1324.06 34.374C1323.52 34.678 1323.1 35.1213 1322.78 35.704C1322.47 36.2867 1322.31 36.9707 1322.31 37.756C1322.31 38.554 1322.47 39.2507 1322.78 39.846C1323.1 40.4287 1323.52 40.8783 1324.06 41.195C1324.59 41.499 1325.18 41.651 1325.82 41.651C1326.47 41.651 1327.06 41.499 1327.59 41.195C1328.13 40.8783 1328.57 40.4287 1328.88 39.846C1329.2 39.2507 1329.36 38.5603 1329.36 37.775ZM1340.43 32.398C1341.7 32.398 1342.72 32.7843 1343.51 33.557C1344.29 34.317 1344.69 35.419 1344.69 36.863V43H1342.98V37.11C1342.98 36.0713 1342.72 35.2797 1342.2 34.735C1341.68 34.1777 1340.97 33.899 1340.07 33.899C1339.16 33.899 1338.43 34.184 1337.88 34.754C1337.35 35.324 1337.09 36.1537 1337.09 37.243V43H1335.36V32.588H1337.09V34.07C1337.43 33.538 1337.89 33.1263 1338.47 32.835C1339.07 32.5437 1339.72 32.398 1340.43 32.398ZM1356.93 29.757V38.136C1356.93 39.314 1357.21 40.188 1357.78 40.758C1358.36 41.328 1359.17 41.613 1360.19 41.613C1361.21 41.613 1362 41.328 1362.57 40.758C1363.15 40.188 1363.44 39.314 1363.44 38.136V29.757H1365.17V38.117C1365.17 39.219 1364.95 40.15 1364.51 40.91C1364.06 41.6573 1363.46 42.2147 1362.7 42.582C1361.95 42.9493 1361.11 43.133 1360.18 43.133C1359.24 43.133 1358.39 42.9493 1357.63 42.582C1356.88 42.2147 1356.29 41.6573 1355.84 40.91C1355.41 40.15 1355.2 39.219 1355.2 38.117V29.757H1356.93ZM1371.12 34.507C1371.46 33.9117 1371.96 33.4177 1372.64 33.025C1373.32 32.6197 1374.11 32.417 1375.01 32.417C1375.94 32.417 1376.77 32.6387 1377.52 33.082C1378.28 33.5253 1378.87 34.1523 1379.3 34.963C1379.74 35.761 1379.95 36.692 1379.95 37.756C1379.95 38.8073 1379.74 39.7447 1379.3 40.568C1378.87 41.3913 1378.28 42.031 1377.52 42.487C1376.77 42.943 1375.94 43.171 1375.01 43.171C1374.12 43.171 1373.34 42.9747 1372.65 42.582C1371.98 42.1767 1371.47 41.6763 1371.12 41.081V47.94H1369.39V32.588H1371.12V34.507ZM1378.18 37.756C1378.18 36.9707 1378.03 36.2867 1377.71 35.704C1377.39 35.1213 1376.96 34.678 1376.42 34.374C1375.88 34.07 1375.3 33.918 1374.65 33.918C1374.02 33.918 1373.43 34.0763 1372.88 34.393C1372.35 34.697 1371.92 35.1467 1371.59 35.742C1371.27 36.3247 1371.12 37.0023 1371.12 37.775C1371.12 38.5603 1371.27 39.2507 1371.59 39.846C1371.92 40.4287 1372.35 40.8783 1372.88 41.195C1373.43 41.499 1374.02 41.651 1374.65 41.651C1375.3 41.651 1375.88 41.499 1376.42 41.195C1376.96 40.8783 1377.39 40.4287 1377.71 39.846C1378.03 39.2507 1378.18 38.554 1378.18 37.756Z" fill="#F5F8FF"/>
<path d="M1187.22 41.594H1191.86V43H1185.49V29.757H1187.22V41.594ZM1199.57 43.171C1198.59 43.171 1197.71 42.9493 1196.91 42.506C1196.12 42.0627 1195.5 41.4357 1195.05 40.625C1194.6 39.8017 1194.38 38.8517 1194.38 37.775C1194.38 36.711 1194.61 35.7737 1195.06 34.963C1195.53 34.1397 1196.17 33.5127 1196.96 33.082C1197.76 32.6387 1198.66 32.417 1199.64 32.417C1200.63 32.417 1201.52 32.6387 1202.32 33.082C1203.12 33.5127 1203.75 34.1333 1204.2 34.944C1204.67 35.7547 1204.91 36.6983 1204.91 37.775C1204.91 38.8517 1204.67 39.8017 1204.18 40.625C1203.72 41.4357 1203.08 42.0627 1202.27 42.506C1201.45 42.9493 1200.56 43.171 1199.57 43.171ZM1199.57 41.651C1200.19 41.651 1200.77 41.5053 1201.32 41.214C1201.86 40.9227 1202.3 40.4857 1202.63 39.903C1202.97 39.3203 1203.14 38.611 1203.14 37.775C1203.14 36.939 1202.97 36.2297 1202.65 35.647C1202.32 35.0643 1201.89 34.6337 1201.35 34.355C1200.82 34.0637 1200.24 33.918 1199.62 33.918C1198.99 33.918 1198.41 34.0637 1197.88 34.355C1197.36 34.6337 1196.94 35.0643 1196.62 35.647C1196.31 36.2297 1196.15 36.939 1196.15 37.775C1196.15 38.6237 1196.3 39.3393 1196.6 39.922C1196.92 40.5047 1197.34 40.9417 1197.86 41.233C1198.38 41.5117 1198.95 41.651 1199.57 41.651ZM1212.8 32.417C1213.7 32.417 1214.49 32.6133 1215.16 33.006C1215.84 33.3987 1216.35 33.8927 1216.68 34.488V32.588H1218.43V43.228C1218.43 44.178 1218.22 45.0203 1217.82 45.755C1217.41 46.5023 1216.83 47.085 1216.07 47.503C1215.32 47.921 1214.45 48.13 1213.45 48.13C1212.08 48.13 1210.94 47.807 1210.03 47.161C1209.12 46.515 1208.58 45.6347 1208.41 44.52H1210.12C1210.31 45.1533 1210.71 45.66 1211.3 46.04C1211.9 46.4327 1212.61 46.629 1213.45 46.629C1214.4 46.629 1215.17 46.3313 1215.77 45.736C1216.38 45.1407 1216.68 44.3047 1216.68 43.228V41.043C1216.34 41.651 1215.83 42.1577 1215.16 42.563C1214.49 42.9683 1213.7 43.171 1212.8 43.171C1211.88 43.171 1211.04 42.943 1210.28 42.487C1209.53 42.031 1208.94 41.3913 1208.51 40.568C1208.08 39.7447 1207.86 38.8073 1207.86 37.756C1207.86 36.692 1208.08 35.761 1208.51 34.963C1208.94 34.1523 1209.53 33.5253 1210.28 33.082C1211.04 32.6387 1211.88 32.417 1212.8 32.417ZM1216.68 37.775C1216.68 36.9897 1216.52 36.3057 1216.2 35.723C1215.89 35.1403 1215.46 34.697 1214.91 34.393C1214.38 34.0763 1213.79 33.918 1213.15 33.918C1212.5 33.918 1211.91 34.07 1211.38 34.374C1210.85 34.678 1210.42 35.1213 1210.11 35.704C1209.79 36.2867 1209.63 36.9707 1209.63 37.756C1209.63 38.554 1209.79 39.2507 1210.11 39.846C1210.42 40.4287 1210.85 40.8783 1211.38 41.195C1211.91 41.499 1212.5 41.651 1213.15 41.651C1213.79 41.651 1214.38 41.499 1214.91 41.195C1215.46 40.8783 1215.89 40.4287 1216.2 39.846C1216.52 39.2507 1216.68 38.5603 1216.68 37.775ZM1223.57 30.897C1223.24 30.897 1222.96 30.783 1222.74 30.555C1222.51 30.327 1222.39 30.0483 1222.39 29.719C1222.39 29.3897 1222.51 29.111 1222.74 28.883C1222.96 28.655 1223.24 28.541 1223.57 28.541C1223.89 28.541 1224.15 28.655 1224.37 28.883C1224.6 29.111 1224.71 29.3897 1224.71 29.719C1224.71 30.0483 1224.6 30.327 1224.37 30.555C1224.15 30.783 1223.89 30.897 1223.57 30.897ZM1224.41 32.588V43H1222.68V32.588H1224.41ZM1233.76 32.398C1235.02 32.398 1236.05 32.7843 1236.84 33.557C1237.62 34.317 1238.01 35.419 1238.01 36.863V43H1236.3V37.11C1236.3 36.0713 1236.04 35.2797 1235.53 34.735C1235.01 34.1777 1234.3 33.899 1233.4 33.899C1232.49 33.899 1231.76 34.184 1231.21 34.754C1230.68 35.324 1230.41 36.1537 1230.41 37.243V43H1228.69V32.588H1230.41V34.07C1230.76 33.538 1231.22 33.1263 1231.8 32.835C1232.4 32.5437 1233.05 32.398 1233.76 32.398Z" fill="#F5F8FF"/>
<path d="M98.0602 265.757V267.163H92.3032V271.628H96.9772V273.034H92.3032V279H90.5742V265.757H98.0602ZM102.371 266.897C102.042 266.897 101.763 266.783 101.535 266.555C101.307 266.327 101.193 266.048 101.193 265.719C101.193 265.39 101.307 265.111 101.535 264.883C101.763 264.655 102.042 264.541 102.371 264.541C102.688 264.541 102.954 264.655 103.169 264.883C103.397 265.111 103.511 265.39 103.511 265.719C103.511 266.048 103.397 266.327 103.169 266.555C102.954 266.783 102.688 266.897 102.371 266.897ZM103.207 268.588V279H101.478V268.588H103.207ZM109.213 270.279C109.517 269.684 109.948 269.221 110.505 268.892C111.075 268.563 111.766 268.398 112.576 268.398V270.184H112.12C110.182 270.184 109.213 271.235 109.213 273.338V279H107.484V268.588H109.213V270.279ZM119.588 279.171C118.79 279.171 118.074 279.038 117.441 278.772C116.808 278.493 116.307 278.113 115.94 277.632C115.573 277.138 115.37 276.574 115.332 275.941H117.118C117.169 276.46 117.409 276.885 117.84 277.214C118.283 277.543 118.86 277.708 119.569 277.708C120.228 277.708 120.747 277.562 121.127 277.271C121.507 276.98 121.697 276.612 121.697 276.169C121.697 275.713 121.494 275.377 121.089 275.162C120.684 274.934 120.057 274.712 119.208 274.497C118.435 274.294 117.802 274.092 117.308 273.889C116.827 273.674 116.409 273.363 116.054 272.958C115.712 272.54 115.541 271.995 115.541 271.324C115.541 270.792 115.699 270.304 116.016 269.861C116.333 269.418 116.782 269.069 117.365 268.816C117.948 268.55 118.613 268.417 119.36 268.417C120.513 268.417 121.444 268.708 122.153 269.291C122.862 269.874 123.242 270.672 123.293 271.685H121.564C121.526 271.14 121.304 270.703 120.899 270.374C120.506 270.045 119.974 269.88 119.303 269.88C118.682 269.88 118.188 270.013 117.821 270.279C117.454 270.545 117.27 270.893 117.27 271.324C117.27 271.666 117.378 271.951 117.593 272.179C117.821 272.394 118.1 272.572 118.429 272.711C118.771 272.838 119.24 272.983 119.835 273.148C120.582 273.351 121.19 273.553 121.659 273.756C122.128 273.946 122.527 274.237 122.856 274.63C123.198 275.023 123.375 275.536 123.388 276.169C123.388 276.739 123.23 277.252 122.913 277.708C122.596 278.164 122.147 278.525 121.564 278.791C120.994 279.044 120.335 279.171 119.588 279.171ZM129.268 270.013V276.15C129.268 276.657 129.376 277.018 129.591 277.233C129.806 277.436 130.18 277.537 130.712 277.537H131.985V279H130.427C129.464 279 128.742 278.778 128.261 278.335C127.78 277.892 127.539 277.163 127.539 276.15V270.013H126.19V268.588H127.539V265.966H129.268V268.588H131.985V270.013H129.268ZM152.217 279H150.488L143.534 268.455V279H141.805V265.738H143.534L150.488 276.264V265.738H152.217V279ZM155.849 273.756C155.849 272.692 156.064 271.761 156.495 270.963C156.925 270.152 157.514 269.525 158.262 269.082C159.022 268.639 159.864 268.417 160.789 268.417C161.701 268.417 162.492 268.613 163.164 269.006C163.835 269.399 164.335 269.893 164.665 270.488V268.588H166.413V279H164.665V277.062C164.323 277.67 163.81 278.177 163.126 278.582C162.454 278.975 161.669 279.171 160.77 279.171C159.845 279.171 159.009 278.943 158.262 278.487C157.514 278.031 156.925 277.391 156.495 276.568C156.064 275.745 155.849 274.807 155.849 273.756ZM164.665 273.775C164.665 272.99 164.506 272.306 164.19 271.723C163.873 271.14 163.442 270.697 162.898 270.393C162.366 270.076 161.777 269.918 161.131 269.918C160.485 269.918 159.896 270.07 159.364 270.374C158.832 270.678 158.407 271.121 158.091 271.704C157.774 272.287 157.616 272.971 157.616 273.756C157.616 274.554 157.774 275.251 158.091 275.846C158.407 276.429 158.832 276.878 159.364 277.195C159.896 277.499 160.485 277.651 161.131 277.651C161.777 277.651 162.366 277.499 162.898 277.195C163.442 276.878 163.873 276.429 164.19 275.846C164.506 275.251 164.665 274.56 164.665 273.775ZM183.185 268.398C183.996 268.398 184.718 268.569 185.351 268.911C185.985 269.24 186.485 269.741 186.852 270.412C187.22 271.083 187.403 271.9 187.403 272.863V279H185.693V273.11C185.693 272.071 185.434 271.28 184.914 270.735C184.408 270.178 183.717 269.899 182.843 269.899C181.944 269.899 181.228 270.19 180.696 270.773C180.164 271.343 179.898 272.173 179.898 273.262V279H178.188V273.11C178.188 272.071 177.929 271.28 177.409 270.735C176.903 270.178 176.212 269.899 175.338 269.899C174.439 269.899 173.723 270.19 173.191 270.773C172.659 271.343 172.393 272.173 172.393 273.262V279H170.664V268.588H172.393V270.089C172.735 269.544 173.191 269.126 173.761 268.835C174.344 268.544 174.984 268.398 175.68 268.398C176.554 268.398 177.327 268.594 177.998 268.987C178.67 269.38 179.17 269.956 179.499 270.716C179.791 269.981 180.272 269.411 180.943 269.006C181.615 268.601 182.362 268.398 183.185 268.398ZM201.07 273.395C201.07 273.724 201.051 274.073 201.013 274.44H192.691C192.754 275.466 193.102 276.27 193.736 276.853C194.382 277.423 195.161 277.708 196.073 277.708C196.82 277.708 197.441 277.537 197.935 277.195C198.441 276.84 198.796 276.372 198.999 275.789H200.861C200.582 276.79 200.025 277.607 199.189 278.24C198.353 278.861 197.314 279.171 196.073 279.171C195.085 279.171 194.198 278.949 193.413 278.506C192.64 278.063 192.032 277.436 191.589 276.625C191.145 275.802 190.924 274.852 190.924 273.775C190.924 272.698 191.139 271.755 191.57 270.944C192 270.133 192.602 269.513 193.375 269.082C194.16 268.639 195.059 268.417 196.073 268.417C197.061 268.417 197.935 268.632 198.695 269.063C199.455 269.494 200.037 270.089 200.443 270.849C200.861 271.596 201.07 272.445 201.07 273.395ZM199.284 273.034C199.284 272.375 199.138 271.812 198.847 271.343C198.555 270.862 198.156 270.501 197.65 270.26C197.156 270.007 196.605 269.88 195.997 269.88C195.123 269.88 194.375 270.159 193.755 270.716C193.147 271.273 192.798 272.046 192.71 273.034H199.284Z" fill="black"/>
<rect x="89" y="298" width="237" height="49" rx="9" fill="white"/>
<rect x="89.5" y="298.5" width="236" height="48" rx="8.5" stroke="black" stroke-opacity="0.19"/>
<path d="M94.4593 378.163V382.59H99.2853V384.015H94.4593V388.575H99.8553V390H92.7303V376.738H99.8553V378.163H94.4593ZM116.323 379.398C117.133 379.398 117.855 379.569 118.489 379.911C119.122 380.24 119.622 380.741 119.99 381.412C120.357 382.083 120.541 382.9 120.541 383.863V390H118.831V384.11C118.831 383.071 118.571 382.28 118.052 381.735C117.545 381.178 116.855 380.899 115.981 380.899C115.081 380.899 114.366 381.19 113.834 381.773C113.302 382.343 113.036 383.173 113.036 384.262V390H111.326V384.11C111.326 383.071 111.066 382.28 110.547 381.735C110.04 381.178 109.35 380.899 108.476 380.899C107.576 380.899 106.861 381.19 106.329 381.773C105.797 382.343 105.531 383.173 105.531 384.262V390H103.802V379.588H105.531V381.089C105.873 380.544 106.329 380.126 106.899 379.835C107.481 379.544 108.121 379.398 108.818 379.398C109.692 379.398 110.464 379.594 111.136 379.987C111.807 380.38 112.307 380.956 112.637 381.716C112.928 380.981 113.409 380.411 114.081 380.006C114.752 379.601 115.499 379.398 116.323 379.398ZM124.061 384.756C124.061 383.692 124.276 382.761 124.707 381.963C125.137 381.152 125.726 380.525 126.474 380.082C127.234 379.639 128.076 379.417 129.001 379.417C129.913 379.417 130.704 379.613 131.376 380.006C132.047 380.399 132.547 380.893 132.877 381.488V379.588H134.625V390H132.877V388.062C132.535 388.67 132.022 389.177 131.338 389.582C130.666 389.975 129.881 390.171 128.982 390.171C128.057 390.171 127.221 389.943 126.474 389.487C125.726 389.031 125.137 388.391 124.707 387.568C124.276 386.745 124.061 385.807 124.061 384.756ZM132.877 384.775C132.877 383.99 132.718 383.306 132.402 382.723C132.085 382.14 131.654 381.697 131.11 381.393C130.578 381.076 129.989 380.918 129.343 380.918C128.697 380.918 128.108 381.07 127.576 381.374C127.044 381.678 126.619 382.121 126.303 382.704C125.986 383.287 125.828 383.971 125.828 384.756C125.828 385.554 125.986 386.251 126.303 386.846C126.619 387.429 127.044 387.878 127.576 388.195C128.108 388.499 128.697 388.651 129.343 388.651C129.989 388.651 130.578 388.499 131.11 388.195C131.654 387.878 132.085 387.429 132.402 386.846C132.718 386.251 132.877 385.56 132.877 384.775ZM139.77 377.897C139.44 377.897 139.162 377.783 138.934 377.555C138.706 377.327 138.592 377.048 138.592 376.719C138.592 376.39 138.706 376.111 138.934 375.883C139.162 375.655 139.44 375.541 139.77 375.541C140.086 375.541 140.352 375.655 140.568 375.883C140.796 376.111 140.91 376.39 140.91 376.719C140.91 377.048 140.796 377.327 140.568 377.555C140.352 377.783 140.086 377.897 139.77 377.897ZM140.606 379.588V390H138.877V379.588H140.606ZM146.611 375.94V390H144.882V375.94H146.611Z" fill="black"/>
<rect x="89" y="409" width="508" height="49" rx="9" fill="white"/>
<rect x="89.5" y="409.5" width="507" height="48" rx="8.5" stroke="black" stroke-opacity="0.19"/>
<path d="M101.58 498.633C101.58 499.735 101.2 500.653 100.44 501.388C99.693 502.11 98.5467 502.471 97.0014 502.471H94.4554V508H92.7264V494.757H97.0014C98.496 494.757 99.6297 495.118 100.402 495.84C101.188 496.562 101.58 497.493 101.58 498.633ZM97.0014 501.046C97.964 501.046 98.6734 500.837 99.1294 500.419C99.5854 500.001 99.8134 499.406 99.8134 498.633C99.8134 496.999 98.876 496.182 97.0014 496.182H94.4554V501.046H97.0014ZM104.413 502.756C104.413 501.692 104.629 500.761 105.059 499.963C105.49 499.152 106.079 498.525 106.826 498.082C107.586 497.639 108.429 497.417 109.353 497.417C110.265 497.417 111.057 497.613 111.728 498.006C112.4 498.399 112.9 498.893 113.229 499.488V497.588H114.977V508H113.229V506.062C112.887 506.67 112.374 507.177 111.69 507.582C111.019 507.975 110.234 508.171 109.334 508.171C108.41 508.171 107.574 507.943 106.826 507.487C106.079 507.031 105.49 506.391 105.059 505.568C104.629 504.745 104.413 503.807 104.413 502.756ZM113.229 502.775C113.229 501.99 113.071 501.306 112.754 500.723C112.438 500.14 112.007 499.697 111.462 499.393C110.93 499.076 110.341 498.918 109.695 498.918C109.049 498.918 108.46 499.07 107.928 499.374C107.396 499.678 106.972 500.121 106.655 500.704C106.339 501.287 106.18 501.971 106.18 502.756C106.18 503.554 106.339 504.251 106.655 504.846C106.972 505.429 107.396 505.878 107.928 506.195C108.46 506.499 109.049 506.651 109.695 506.651C110.341 506.651 110.93 506.499 111.462 506.195C112.007 505.878 112.438 505.429 112.754 504.846C113.071 504.251 113.229 503.56 113.229 502.775ZM122.915 508.171C122.117 508.171 121.401 508.038 120.768 507.772C120.135 507.493 119.634 507.113 119.267 506.632C118.9 506.138 118.697 505.574 118.659 504.941H120.445C120.496 505.46 120.736 505.885 121.167 506.214C121.61 506.543 122.187 506.708 122.896 506.708C123.555 506.708 124.074 506.562 124.454 506.271C124.834 505.98 125.024 505.612 125.024 505.169C125.024 504.713 124.821 504.377 124.416 504.162C124.011 503.934 123.384 503.712 122.535 503.497C121.762 503.294 121.129 503.092 120.635 502.889C120.154 502.674 119.736 502.363 119.381 501.958C119.039 501.54 118.868 500.995 118.868 500.324C118.868 499.792 119.026 499.304 119.343 498.861C119.66 498.418 120.109 498.069 120.692 497.816C121.275 497.55 121.94 497.417 122.687 497.417C123.84 497.417 124.771 497.708 125.48 498.291C126.189 498.874 126.569 499.672 126.62 500.685H124.891C124.853 500.14 124.631 499.703 124.226 499.374C123.833 499.045 123.301 498.88 122.63 498.88C122.009 498.88 121.515 499.013 121.148 499.279C120.781 499.545 120.597 499.893 120.597 500.324C120.597 500.666 120.705 500.951 120.92 501.179C121.148 501.394 121.427 501.572 121.756 501.711C122.098 501.838 122.567 501.983 123.162 502.148C123.909 502.351 124.517 502.553 124.986 502.756C125.455 502.946 125.854 503.237 126.183 503.63C126.525 504.023 126.702 504.536 126.715 505.169C126.715 505.739 126.557 506.252 126.24 506.708C125.923 507.164 125.474 507.525 124.891 507.791C124.321 508.044 123.662 508.171 122.915 508.171ZM134.172 508.171C133.374 508.171 132.658 508.038 132.025 507.772C131.392 507.493 130.891 507.113 130.524 506.632C130.157 506.138 129.954 505.574 129.916 504.941H131.702C131.753 505.46 131.993 505.885 132.424 506.214C132.867 506.543 133.444 506.708 134.153 506.708C134.812 506.708 135.331 506.562 135.711 506.271C136.091 505.98 136.281 505.612 136.281 505.169C136.281 504.713 136.078 504.377 135.673 504.162C135.268 503.934 134.641 503.712 133.792 503.497C133.019 503.294 132.386 503.092 131.892 502.889C131.411 502.674 130.993 502.363 130.638 501.958C130.296 501.54 130.125 500.995 130.125 500.324C130.125 499.792 130.283 499.304 130.6 498.861C130.917 498.418 131.366 498.069 131.949 497.816C132.532 497.55 133.197 497.417 133.944 497.417C135.097 497.417 136.028 497.708 136.737 498.291C137.446 498.874 137.826 499.672 137.877 500.685H136.148C136.11 500.14 135.888 499.703 135.483 499.374C135.09 499.045 134.558 498.88 133.887 498.88C133.266 498.88 132.772 499.013 132.405 499.279C132.038 499.545 131.854 499.893 131.854 500.324C131.854 500.666 131.962 500.951 132.177 501.179C132.405 501.394 132.684 501.572 133.013 501.711C133.355 501.838 133.824 501.983 134.419 502.148C135.166 502.351 135.774 502.553 136.243 502.756C136.712 502.946 137.111 503.237 137.44 503.63C137.782 504.023 137.959 504.536 137.972 505.169C137.972 505.739 137.814 506.252 137.497 506.708C137.18 507.164 136.731 507.525 136.148 507.791C135.578 508.044 134.919 508.171 134.172 508.171ZM155.613 497.588L152.364 508H150.578L148.07 499.735L145.562 508H143.776L140.508 497.588H142.275L144.669 506.328L147.253 497.588H149.02L151.547 506.347L153.903 497.588H155.613ZM163.2 508.171C162.224 508.171 161.338 507.949 160.54 507.506C159.754 507.063 159.134 506.436 158.678 505.625C158.234 504.802 158.013 503.852 158.013 502.775C158.013 501.711 158.241 500.774 158.697 499.963C159.165 499.14 159.799 498.513 160.597 498.082C161.395 497.639 162.288 497.417 163.276 497.417C164.264 497.417 165.157 497.639 165.955 498.082C166.753 498.513 167.38 499.133 167.836 499.944C168.304 500.755 168.539 501.698 168.539 502.775C168.539 503.852 168.298 504.802 167.817 505.625C167.348 506.436 166.708 507.063 165.898 507.506C165.087 507.949 164.188 508.171 163.2 508.171ZM163.2 506.651C163.82 506.651 164.403 506.505 164.948 506.214C165.492 505.923 165.929 505.486 166.259 504.903C166.601 504.32 166.772 503.611 166.772 502.775C166.772 501.939 166.607 501.23 166.278 500.647C165.948 500.064 165.518 499.634 164.986 499.355C164.454 499.064 163.877 498.918 163.257 498.918C162.623 498.918 162.041 499.064 161.509 499.355C160.989 499.634 160.571 500.064 160.255 500.647C159.938 501.23 159.78 501.939 159.78 502.775C159.78 503.624 159.932 504.339 160.236 504.922C160.552 505.505 160.97 505.942 161.49 506.233C162.009 506.512 162.579 506.651 163.2 506.651ZM173.871 499.279C174.175 498.684 174.606 498.221 175.163 497.892C175.733 497.563 176.423 497.398 177.234 497.398V499.184H176.778C174.84 499.184 173.871 500.235 173.871 502.338V508H172.142V497.588H173.871V499.279ZM179.914 502.756C179.914 501.692 180.129 500.761 180.56 499.963C180.99 499.152 181.579 498.525 182.327 498.082C183.087 497.639 183.935 497.417 184.873 497.417C185.683 497.417 186.437 497.607 187.134 497.987C187.83 498.354 188.362 498.842 188.73 499.45V493.94H190.478V508H188.73V506.043C188.388 506.664 187.881 507.177 187.21 507.582C186.538 507.975 185.753 508.171 184.854 508.171C183.929 508.171 183.087 507.943 182.327 507.487C181.579 507.031 180.99 506.391 180.56 505.568C180.129 504.745 179.914 503.807 179.914 502.756ZM188.73 502.775C188.73 501.99 188.571 501.306 188.255 500.723C187.938 500.14 187.507 499.697 186.963 499.393C186.431 499.076 185.842 498.918 185.196 498.918C184.55 498.918 183.961 499.07 183.429 499.374C182.897 499.678 182.472 500.121 182.156 500.704C181.839 501.287 181.681 501.971 181.681 502.756C181.681 503.554 181.839 504.251 182.156 504.846C182.472 505.429 182.897 505.878 183.429 506.195C183.961 506.499 184.55 506.651 185.196 506.651C185.842 506.651 186.431 506.499 186.963 506.195C187.507 505.878 187.938 505.429 188.255 504.846C188.571 504.251 188.73 503.56 188.73 502.775Z" fill="black"/>
<rect x="91" y="529" width="506" height="49" rx="9" fill="white"/>
<rect x="91.5" y="529.5" width="505" height="48" rx="8.5" stroke="black" stroke-opacity="0.19"/>
<path d="M363.617 276.594H368.253V278H361.888V264.757H363.617V276.594ZM370.773 272.756C370.773 271.692 370.988 270.761 371.419 269.963C371.849 269.152 372.438 268.525 373.186 268.082C373.946 267.639 374.788 267.417 375.713 267.417C376.625 267.417 377.416 267.613 378.088 268.006C378.759 268.399 379.259 268.893 379.589 269.488V267.588H381.337V278H379.589V276.062C379.247 276.67 378.734 277.177 378.05 277.582C377.378 277.975 376.593 278.171 375.694 278.171C374.769 278.171 373.933 277.943 373.186 277.487C372.438 277.031 371.849 276.391 371.419 275.568C370.988 274.745 370.773 273.807 370.773 272.756ZM379.589 272.775C379.589 271.99 379.43 271.306 379.114 270.723C378.797 270.14 378.366 269.697 377.822 269.393C377.29 269.076 376.701 268.918 376.055 268.918C375.409 268.918 374.82 269.07 374.288 269.374C373.756 269.678 373.331 270.121 373.015 270.704C372.698 271.287 372.54 271.971 372.54 272.756C372.54 273.554 372.698 274.251 373.015 274.846C373.331 275.429 373.756 275.878 374.288 276.195C374.82 276.499 375.409 276.651 376.055 276.651C376.701 276.651 377.29 276.499 377.822 276.195C378.366 275.878 378.797 275.429 379.114 274.846C379.43 274.251 379.589 273.56 379.589 272.775ZM389.275 278.171C388.477 278.171 387.761 278.038 387.128 277.772C386.494 277.493 385.994 277.113 385.627 276.632C385.259 276.138 385.057 275.574 385.019 274.941H386.805C386.855 275.46 387.096 275.885 387.527 276.214C387.97 276.543 388.546 276.708 389.256 276.708C389.914 276.708 390.434 276.562 390.814 276.271C391.194 275.98 391.384 275.612 391.384 275.169C391.384 274.713 391.181 274.377 390.776 274.162C390.37 273.934 389.743 273.712 388.895 273.497C388.122 273.294 387.489 273.092 386.995 272.889C386.513 272.674 386.095 272.363 385.741 271.958C385.399 271.54 385.228 270.995 385.228 270.324C385.228 269.792 385.386 269.304 385.703 268.861C386.019 268.418 386.469 268.069 387.052 267.816C387.634 267.55 388.299 267.417 389.047 267.417C390.199 267.417 391.13 267.708 391.84 268.291C392.549 268.874 392.929 269.672 392.98 270.685H391.251C391.213 270.14 390.991 269.703 390.586 269.374C390.193 269.045 389.661 268.88 388.99 268.88C388.369 268.88 387.875 269.013 387.508 269.279C387.14 269.545 386.957 269.893 386.957 270.324C386.957 270.666 387.064 270.951 387.28 271.179C387.508 271.394 387.786 271.572 388.116 271.711C388.458 271.838 388.926 271.983 389.522 272.148C390.269 272.351 390.877 272.553 391.346 272.756C391.814 272.946 392.213 273.237 392.543 273.63C392.885 274.023 393.062 274.536 393.075 275.169C393.075 275.739 392.916 276.252 392.6 276.708C392.283 277.164 391.833 277.525 391.251 277.791C390.681 278.044 390.022 278.171 389.275 278.171ZM398.954 269.013V275.15C398.954 275.657 399.062 276.018 399.277 276.233C399.493 276.436 399.866 276.537 400.398 276.537H401.671V278H400.113C399.151 278 398.429 277.778 397.947 277.335C397.466 276.892 397.225 276.163 397.225 275.15V269.013H395.876V267.588H397.225V264.966H398.954V267.588H401.671V269.013H398.954ZM421.904 278H420.175L413.221 267.455V278H411.492V264.738H413.221L420.175 275.264V264.738H421.904V278ZM425.535 272.756C425.535 271.692 425.75 270.761 426.181 269.963C426.612 269.152 427.201 268.525 427.948 268.082C428.708 267.639 429.55 267.417 430.475 267.417C431.387 267.417 432.179 267.613 432.85 268.006C433.521 268.399 434.022 268.893 434.351 269.488V267.588H436.099V278H434.351V276.062C434.009 276.67 433.496 277.177 432.812 277.582C432.141 277.975 431.355 278.171 430.456 278.171C429.531 278.171 428.695 277.943 427.948 277.487C427.201 277.031 426.612 276.391 426.181 275.568C425.75 274.745 425.535 273.807 425.535 272.756ZM434.351 272.775C434.351 271.99 434.193 271.306 433.876 270.723C433.559 270.14 433.129 269.697 432.584 269.393C432.052 269.076 431.463 268.918 430.817 268.918C430.171 268.918 429.582 269.07 429.05 269.374C428.518 269.678 428.094 270.121 427.777 270.704C427.46 271.287 427.302 271.971 427.302 272.756C427.302 273.554 427.46 274.251 427.777 274.846C428.094 275.429 428.518 275.878 429.05 276.195C429.582 276.499 430.171 276.651 430.817 276.651C431.463 276.651 432.052 276.499 432.584 276.195C433.129 275.878 433.559 275.429 433.876 274.846C434.193 274.251 434.351 273.56 434.351 272.775ZM452.872 267.398C453.683 267.398 454.405 267.569 455.038 267.911C455.671 268.24 456.172 268.741 456.539 269.412C456.906 270.083 457.09 270.9 457.09 271.863V278H455.38V272.11C455.38 271.071 455.12 270.28 454.601 269.735C454.094 269.178 453.404 268.899 452.53 268.899C451.631 268.899 450.915 269.19 450.383 269.773C449.851 270.343 449.585 271.173 449.585 272.262V278H447.875V272.11C447.875 271.071 447.615 270.28 447.096 269.735C446.589 269.178 445.899 268.899 445.025 268.899C444.126 268.899 443.41 269.19 442.878 269.773C442.346 270.343 442.08 271.173 442.08 272.262V278H440.351V267.588H442.08V269.089C442.422 268.544 442.878 268.126 443.448 267.835C444.031 267.544 444.67 267.398 445.367 267.398C446.241 267.398 447.014 267.594 447.685 267.987C448.356 268.38 448.857 268.956 449.186 269.716C449.477 268.981 449.959 268.411 450.63 268.006C451.301 267.601 452.049 267.398 452.872 267.398ZM470.756 272.395C470.756 272.724 470.737 273.073 470.699 273.44H462.377C462.44 274.466 462.789 275.27 463.422 275.853C464.068 276.423 464.847 276.708 465.759 276.708C466.506 276.708 467.127 276.537 467.621 276.195C468.128 275.84 468.482 275.372 468.685 274.789H470.547C470.268 275.79 469.711 276.607 468.875 277.24C468.039 277.861 467 278.171 465.759 278.171C464.771 278.171 463.884 277.949 463.099 277.506C462.326 277.063 461.718 276.436 461.275 275.625C460.832 274.802 460.61 273.852 460.61 272.775C460.61 271.698 460.825 270.755 461.256 269.944C461.687 269.133 462.288 268.513 463.061 268.082C463.846 267.639 464.746 267.417 465.759 267.417C466.747 267.417 467.621 267.632 468.381 268.063C469.141 268.494 469.724 269.089 470.129 269.849C470.547 270.596 470.756 271.445 470.756 272.395ZM468.97 272.034C468.97 271.375 468.824 270.812 468.533 270.343C468.242 269.862 467.843 269.501 467.336 269.26C466.842 269.007 466.291 268.88 465.683 268.88C464.809 268.88 464.062 269.159 463.441 269.716C462.833 270.273 462.485 271.046 462.396 272.034H468.97Z" fill="black"/>
<rect x="360" y="298" width="237" height="49" rx="9" fill="white"/>
<rect x="360.5" y="298.5" width="236" height="48" rx="8.5" stroke="black" stroke-opacity="0.19"/>
<defs>
<filter id="filter0_d" x="63" y="238" width="568" height="578" filterUnits="userSpaceOnUse" color-interpolation-filters="sRGB">
<feFlood flood-opacity="0" result="BackgroundImageFix"/>
<feColorMatrix in="SourceAlpha" type="matrix" values="0 0 0 0 0 0 0 0 0 0 0 0 0 0 0 0 0 0 127 0" result="hardAlpha"/>
<feOffset dy="4"/>
<feGaussianBlur stdDeviation="1"/>
<feComposite in2="hardAlpha" operator="out"/>
<feColorMatrix type="matrix" values="0 0 0 0 0 0 0 0 0 0 0 0 0 0 0 0 0 0 0.25 0"/>
<feBlend mode="normal" in2="BackgroundImageFix" result="effect1_dropShadow"/>
<feBlend mode="normal" in="SourceGraphic" in2="effect1_dropShadow" result="shape"/>
</filter>
</defs>
</svg>
