<svg width="1440" height="1024" viewBox="0 0 1440 1024" fill="none" xmlns="http://www.w3.org/2000/svg">
<g clip-path="url(#clip0)">
<rect width="1440" height="1024" fill="#CBC5AE"/>
<path d="M703.93 470.707C683.503 529.178 645.076 566.202 588.647 581.777C532.218 597.352 474.768 621.226 416.297 653.398C357.826 685.57 311.227 673.697 276.502 617.779C241.777 561.861 201.689 508.752 156.24 458.451C110.791 408.15 102.109 351.594 130.196 288.782C158.283 225.97 201.945 184.095 261.182 163.158C320.419 142.221 380.55 121.794 441.575 101.878C502.6 81.962 553.283 97.0267 593.626 147.072C633.969 197.117 667.545 248.95 694.355 302.57C721.165 356.19 724.357 412.236 703.93 470.707Z" fill="url(#paint0_radial)"/>
<g style="mix-blend-mode:exclusion">
<path d="M605.43 511.348C701.575 449.948 773.564 404.493 821.396 374.983C869.228 345.472 928.923 315.864 1000.48 286.158C1072.04 256.453 1134.1 271.797 1186.66 332.192C1239.23 392.587 1245.85 455.429 1206.52 520.716C1167.19 586.003 1159.77 674.524 1184.28 786.279C1208.8 898.034 1169.89 958.105 1067.56 966.492C965.24 974.88 888.395 941.64 837.03 866.772C785.664 791.905 710.186 729.301 610.596 678.959C511.006 628.618 509.284 572.747 605.43 511.348Z" fill="url(#paint1_radial)"/>
</g>
</g>
<defs>
<radialGradient id="paint0_radial" cx="0" cy="0" r="1" gradientUnits="userSpaceOnUse" gradientTransform="translate(674.964 515.057) scale(603.075 577.649)">
<stop stop-color="#C8583E" stop-opacity="0.63"/>
<stop offset="1" stop-color="#CBC5AE"/>
</radialGradient>
<radialGradient id="paint1_radial" cx="0" cy="0" r="1" gradientUnits="userSpaceOnUse" gradientTransform="translate(703.331 487.498) rotate(175.5) scale(708.1 693.283)">
<stop stop-color="#C8583E" stop-opacity="0.48"/>
<stop offset="1" stop-color="#CBC5AE"/>
</radialGradient>
<clipPath id="clip0">
<rect width="1440" height="1024" fill="white"/>
</clipPath>
</defs>
</svg>
