<svg width="1440" height="505" viewBox="0 0 1440 505" fill="none" xmlns="http://www.w3.org/2000/svg">
<g clip-path="url(#clip0)">
<path d="M0 84.5L189 165C326.5 211.699 531.333 88.0752 797 211.699C1062.67 336.845 1352.33 490.238 1618 491C1883.67 490.238 2125.33 336.845 2391 232.26C2656.67 128.691 2922.33 128.691 3188 87.3136C3453.67 44.9212 3719.33 -36.3097 3985 -120.079C4250.67 -203.849 4516.33 -285.08 4782 -265.279C5047.67 -244.464 5313.33 -120.079 5579 4.30576C5844.67 128.691 6110.33 253.076 6376 356.645C6641.67 461.23 6907.33 542.461 7173 543.222C7438.67 542.461 7704.33 461.23 7970 398.276C8235.67 336.845 8501.33 293.691 8767 273.891C9032.67 253.076 9298.33 253.076 9564 294.453C9829.67 336.845 10095.3 418.076 10361 460.468C10626.7 501.845 10892.3 501.845 11158 501.845C11423.7 501.845 11689.3 501.845 11955 377.46C12220.7 253.076 12486.3 4.30576 12752 4.30576C13017.7 4.30576 13283.3 253.076 13549 315.268C13814.7 377.46 14080.3 253.076 14346 273.891C14611.7 293.691 14877.3 461.23 15143 522.661C15408.7 585.615 15674.3 542.461 15940 543.222C16205.7 542.461 16471.3 585.615 16737 584.853C17002.7 585.615 17268.3 542.461 17534 543.222C17799.7 542.461 18065.3 585.615 18331 460.468C18596.7 336.845 18862.3 44.9212 18995.2 -99.2637L19128 -244.464V875H18995.2C18862.3 875 18596.7 875 18331 875C18065.3 875 17799.7 875 17534 875C17268.3 875 17002.7 875 16737 875C16471.3 875 16205.7 875 15940 875C15674.3 875 15408.7 875 15143 875C14877.3 875 14611.7 875 14346 875C14080.3 875 13814.7 875 13549 875C13283.3 875 13017.7 875 12752 875C12486.3 875 12220.7 875 11955 875C11689.3 875 11423.7 875 11158 875C10892.3 875 10626.7 875 10361 875C10095.3 875 9829.67 875 9564 875C9298.33 875 9032.67 875 8767 875C8501.33 875 8235.67 875 7970 875C7704.33 875 7438.67 875 7173 875C6907.33 875 6641.67 875 6376 875C6110.33 875 5844.67 875 5579 875C5313.33 875 5047.67 875 4782 875C4516.33 875 4250.67 875 3985 875C3719.33 875 3453.67 875 3188 875C2922.33 875 2656.67 875 2391 875C2125.33 875 1859.67 875 1594 875C1328.33 875 1062.67 875 797 875C531.333 875 265.667 875 132.833 875H0V84.5Z" fill="#445A7C" fill-opacity="0.65"/>
</g>
<defs>
<clipPath id="clip0">
<rect width="1440" height="505" fill="white"/>
</clipPath>
</defs>
</svg>
